<?xml version="1.0" encoding="UTF-8"?><svg id="b" xmlns="http://www.w3.org/2000/svg" xmlns:xlink="http://www.w3.org/1999/xlink" viewBox="0 0 673.1 253.89"><defs><radialGradient id="d" cx="99.49" cy="48.34" fx="99.49" fy="48.34" r="111.49" gradientUnits="userSpaceOnUse"><stop offset=".55" stop-color="#fff"/><stop offset=".7" stop-color="#c9c9c9"/></radialGradient><radialGradient id="e" cx="46.02" cy="58.58" fx="9.01" fy="105.1" r="102.27" gradientUnits="userSpaceOnUse"><stop offset=".6" stop-color="#7d7d7d"/><stop offset=".87" stop-color="#2b2b2b"/></radialGradient><linearGradient id="f" x1="179.84" y1="44" x2="179.84" y2="116.61" gradientUnits="userSpaceOnUse"><stop offset="0" stop-color="#c907cb"/><stop offset="1" stop-color="#f807ff"/></linearGradient><linearGradient id="g" x1="179.84" y1="116.61" x2="179.84" y2="44" xlink:href="#f"/><linearGradient id="h" x1="245.02" y1="43.43" x2="245.02" y2="116.58" xlink:href="#f"/><linearGradient id="i" x1="245.02" y1="116.58" x2="245.02" y2="43.43" xlink:href="#f"/><linearGradient id="j" x1="300.09" x2="300.09" xlink:href="#f"/><linearGradient id="k" x1="300.09" y1="116.61" x2="300.09" y2="44" xlink:href="#f"/><linearGradient id="l" x1="340.7" x2="340.7" xlink:href="#f"/><linearGradient id="m" x1="340.7" y1="116.61" x2="340.7" y2="44" xlink:href="#f"/><linearGradient id="n" x1="390.68" y1="43.43" x2="390.68" y2="117.06" xlink:href="#f"/><linearGradient id="o" x1="390.68" y1="117.06" x2="390.68" y2="43.43" xlink:href="#f"/><linearGradient id="p" x1="456.88" x2="456.88" xlink:href="#f"/><linearGradient id="q" x1="456.88" y1="116.61" x2="456.88" y2="44" xlink:href="#f"/><linearGradient id="r" x1="170.21" y1="137.65" x2="170.21" y2="211.16" gradientUnits="userSpaceOnUse"><stop offset=".23" stop-color="#ebcbff"/><stop offset="1" stop-color="#b848ff"/></linearGradient><linearGradient id="s" x1="170.21" y1="137.65" x2="170.21" y2="211.16" gradientUnits="userSpaceOnUse"><stop offset="0" stop-color="#b848ff"/><stop offset="1" stop-color="#ebcbff" stop-opacity=".5"/></linearGradient><linearGradient id="t" x1="232.45" x2="232.45" y2="210.8" xlink:href="#r"/><linearGradient id="u" x1="232.45" x2="232.45" y2="210.8" xlink:href="#s"/><linearGradient id="v" x1="291.31" y1="138.22" x2="291.31" y2="210.83" xlink:href="#r"/><linearGradient id="w" x1="291.31" y1="138.22" x2="291.31" y2="210.83" xlink:href="#s"/><linearGradient id="x" x1="347.85" x2="347.85" y2="210.8" xlink:href="#r"/><linearGradient id="y" x1="347.85" x2="347.85" y2="210.8" xlink:href="#s"/><linearGradient id="z" x1="401.44" y1="138.22" x2="401.44" y2="211.07" xlink:href="#r"/><linearGradient id="aa" x1="401.44" y1="138.22" x2="401.44" y2="211.07" xlink:href="#s"/><linearGradient id="ab" x1="470.23" y1="138.22" x2="470.23" y2="210.83" xlink:href="#r"/><linearGradient id="ac" x1="470.23" y1="138.22" x2="470.23" y2="210.83" xlink:href="#s"/><linearGradient id="ad" x1="543.98" y1="138.22" x2="543.98" y2="210.83" xlink:href="#r"/><linearGradient id="ae" x1="543.98" y1="138.22" x2="543.98" y2="210.83" xlink:href="#s"/><linearGradient id="af" x1="609" y1="138.22" x2="609" y2="210.83" xlink:href="#r"/><linearGradient id="ag" x1="609" y1="138.22" x2="609" y2="210.83" xlink:href="#s"/><linearGradient id="ah" x1="569.83" y1="43.36" x2="569.83" y2="117.13" xlink:href="#f"/><linearGradient id="ai" x1="569.83" y1="117.13" x2="569.83" y2="43.36" xlink:href="#f"/></defs><g id="c"><path d="M126.22,0C89.58,0,56.02,18.19,35.99,48.78c-5.8,4.49-11.02,9.61-15.54,15.22C-.42,89.94-5.77,125.26,6.49,156.18c9.88,24.91,30.12,44.38,55.55,53.41,14.3,5.08,29.88,6.59,45.21,4.39,6.25,1.11,12.62,1.67,18.97,1.67,59.46,0,107.83-48.37,107.83-107.83S185.67,0,126.22,0Z" fill="#000" stroke-width="0"/><circle cx="126.22" cy="107.83" r="95.83" fill="url(#d)" stroke-width="0"/><path d="M125.88,171.16c.15,6.54-.7,13.61-3.37,19.63-2.96,6.67-7.79,9.79-14.84,10.98-13.93,2.36-28.29,1.24-41.62-3.49-21.88-7.77-39.84-24.92-48.41-46.53-10.61-26.75-5.87-57.82,12.16-80.24,4.21-5.23,9.08-9.91,14.44-13.95,2.62-1.97,5.3-3.96,8.59-4.59,3.28-.63,6.73-.11,9.86.95,12.92,4.4,23.34,16.63,31.09,27.36,9.54,13.2,17.13,28.14,22.68,43.43,5.39,14.88,9.23,30.55,9.41,46.44Z" fill="url(#e)" stroke-width="0"/><path d="M649.23,32.02v96.44h-7.67c1.22.6,2.34,1.39,3.32,2.36,2.34,2.34,3.64,5.41,3.68,8.68.32,15.03.48,26.82.48,35.01,0,11.25-.16,23.47-.48,36.32l-.26,10.47-10.46.57c-3.52.19-6.86.29-9.92.29-3.56,0-7.42-.09-11.47-.28-1-.04-1.96-.19-2.88-.45l-9.43.45c-3.98.19-7.49.28-10.45.28-3.28,0-7.36-.09-12.15-.28h-.21c-.51-.04-1.01-.11-1.5-.2l-4.05.19c-3.96.19-7.65.28-10.99.28-5.39,0-9.49-.1-12.51-.29-2.33-.13-4.59-.93-6.55-2.3l-.38,1.9-8.86.41c-4.01.19-7.54.28-10.47.28-3.4,0-7.64-.09-12.59-.27-.65-.02-1.29-.09-1.91-.2l-3.7.19c-3.64.19-6.97.29-9.9.29-2.63,0-6.37-.09-11.42-.27-3.22-.08-6.25-1.38-8.55-3.68-.89-.89-1.63-1.89-2.21-2.97l-5.97,1.09-2.3-.46.07,5.49-10.94.52c-3.98.19-7.49.28-10.45.28s-6.96-.09-12.02-.27c-.43-.01-.86-.05-1.28-.1l-7.02.33c-4.03.19-10.95.28-21.13.28-2.06,0-6.28-.06-12.89-.2-6.37-.13-10.72-.24-12.95-.32-1.87-.05-3.67-.51-5.3-1.34l-.4.07c-5.44,1-10.78,1.51-15.87,1.51-2.65,0-5.15-.1-7.43-.3-2.42-.21-4.85-.57-7.21-1.08-2.6-.56-5.03-1.31-7.25-2.25-.06-.02-.11-.05-.17-.08l.43,2.85-12.57.6c-3.96.19-7.66.28-10.99.28-5.39,0-9.49-.1-12.51-.29-2.33-.13-4.59-.92-6.55-2.3l-.38,1.9-8.86.41c-4.02.19-7.54.28-10.47.28-3.4,0-7.64-.09-12.59-.27-3.32-.08-6.38-1.43-8.65-3.83-2.17-2.3-3.37-5.32-3.37-8.5,0-1.09.11-2.06.73-5.63.08-.51.17-1.03.26-1.54-.12.04-.24.09-.36.13-2.12.73-4.45,1.31-6.93,1.73-.84.14-1.69.27-2.55.38.04,2.96.06,4.92.06,5.91v10.86l-10.85.46c-3.89.17-7.61.25-11.05.25-2.81,0-6.9-.08-12.5-.24-3.25-.06-6.29-1.36-8.61-3.68-.67-.67-1.24-1.41-1.74-2.19-1.18.79-2.42,1.49-3.68,2.1-2.35,1.13-4.96,2.04-7.77,2.72-2.53.61-5.14,1.05-7.73,1.3-2.43.23-5.06.35-7.83.35-8.74,0-17.66-.46-26.51-1.38l-11.64-1.21,5.86-43.25c-.07-.14-.14-.27-.21-.41-1.17-2.28-2.11-4.85-2.88-7.85-.78-3.06-1.18-6.38-1.18-9.88s.35-6.94,1.05-9.9c.74-3.12,1.77-5.91,3.09-8.27,1.62-2.93,3.86-5.43,6.65-7.43,2.12-1.53,4.33-2.76,6.55-3.68,1.38-.57,2.9-1.03,4.56-1.41-1.4-.04-2.85-.09-4.39-.14-3.71-.09-7.1-1.79-9.34-4.71-2.07-2.69-2.92-6.18-2.33-9.58.19-1.05.46-1.99,1.68-5.48,2.25-6.66,4.71-13.62,7.33-20.71,2.6-7.05,5.95-15.93,9.97-26.4,4-10.44,6.62-17.29,7.85-20.55l2.64-6.98,7.45-.33c4.19-.19,9.93-.28,17.07-.28,6.58,0,12.43.09,17.38.27,3.13.08,6.09,1.31,8.37,3.49,2.45,2.36,3.81,5.5,3.86,8.87.01.64.03,1.35.05,2.12,3.1-3.64,6.74-6.67,10.83-8.99,4.07-2.31,8.44-3.98,12.99-4.96,4.2-.91,8.86-1.37,13.85-1.37,2.87,0,5.62.22,8.17.66.73.12,1.5.27,2.31.44l5.19-.24c4.07-.19,13.36-.28,28.38-.28,11.8,0,20,.09,25.07.27.67.02,1.33.1,1.98.23l4.64-.22c4-.19,7.73-.28,11.09-.28s7.63.09,12.58.27c3.58.09,6.92,1.71,9.2,4.48.84,1.02,1.5,2.15,1.97,3.36,2.53-1.92,5.23-3.55,8.1-4.85,4.95-2.24,10.34-3.53,16.02-3.82h.29s.29-.01.29-.01c4.55,0,8.69.33,12.3.97,4.05.72,7.79,1.95,11.11,3.64,2.46,1.25,4.65,2.78,6.57,4.56l1.59-7.9,8.84-.42c4-.19,7.53-.28,10.49-.28,2.55,0,6.08.09,10.79.28,1.09.04,2.15.22,3.16.52v-.09s9.2-.43,9.2-.43c4.02-.19,7.75-.28,11.09-.28s7.15.09,11.54.28h.19c3.51.22,6.66,1.81,8.87,4.49,2.25,2.73,3.21,6.3,2.64,9.83-.33,2.13-.65,4.18-.96,6.17l3.78-21.42h143.96Z" fill="#000" stroke-width="0"/><path d="M148.61,115.35c.06-.32.47-1.57,1.23-3.75,2.22-6.59,4.64-13.41,7.24-20.46,2.61-7.06,5.91-15.82,9.92-26.28,4.01-10.46,6.63-17.32,7.86-20.58,4.04-.18,9.56-.27,16.56-.27,6.53,0,12.22.09,17.07.27.32,0,.6.12.84.35.24.23.36.52.36.86.09,4.46.3,11.76.63,21.89.33,10.13.55,19.08.67,26.86.12,7.78.1,15.15-.07,22.12-3.82.18-7.31.27-10.5.27-5.1,0-9.01-.09-11.72-.27-.34-.02-.62-.15-.85-.38-.23-.23-.35-.51-.35-.83-.09-4.6-.11-8.61-.07-12.01h-11.14c-1.4,4.28-2.94,8.69-4.64,13.21-3.88.18-7.2.27-9.99.27-3.32,0-7.4-.09-12.23-.27-.3,0-.52-.09-.67-.29-.15-.19-.2-.43-.15-.71ZM181.06,87.51h6.76c.1-3.28.27-7.96.52-14.04.25-6.08.42-10.38.5-12.9-.98,3.26-2.33,7.94-4.07,14.04-1.74,6.1-2.97,10.4-3.72,12.9Z" fill="url(#f)" stroke-width="0"/><path d="M191.43,45c6.48,0,12.21.09,17.07.27.05,0,.08,0,.15.07.04.04.05.06.05.16.09,4.45.31,11.82.63,21.9.32,10.08.55,19.11.67,26.84.11,7.38.1,14.48-.05,21.14-3.43.15-6.63.23-9.52.23-5.06,0-8.98-.09-11.67-.27-.1,0-.15-.04-.2-.08-.05-.05-.06-.08-.06-.14-.09-4.58-.11-8.61-.07-11.98,0-.27-.1-.52-.29-.71s-.44-.3-.71-.3h-11.14c-.43,0-.82.28-.95.69-1.32,4.06-2.8,8.28-4.4,12.55-3.57.16-6.69.24-9.28.24-3.25,0-7.29-.09-12.02-.26.09-.33.37-1.2,1.15-3.43,2.21-6.55,4.64-13.43,7.23-20.44,2.59-7.01,5.93-15.85,9.91-26.26,3.82-9.96,6.32-16.51,7.63-19.97,3.95-.16,9.28-.24,15.86-.24M181.06,88.51h6.76c.54,0,.98-.43,1-.97.1-3.28.27-8,.52-14.03.26-6.23.42-10.45.5-12.91.02-.5-.34-.94-.84-1.02-.05,0-.11-.01-.16-.01-.43,0-.83.28-.96.71-.97,3.23-2.34,7.96-4.07,14.05-1.73,6.07-2.98,10.4-3.71,12.89-.09.3-.03.63.16.88.19.25.49.4.8.4M191.43,44c-7.01,0-12.53.09-16.56.27-1.24,3.26-3.86,10.12-7.86,20.58-4.01,10.46-7.31,19.22-9.92,26.28-2.61,7.06-5.02,13.88-7.24,20.46-.77,2.18-1.18,3.43-1.23,3.75-.05.28,0,.52.15.71.15.19.37.29.67.29,4.83.18,8.91.27,12.23.27,2.78,0,6.11-.09,9.99-.27,1.7-4.52,3.25-8.93,4.64-13.21h11.14c-.04,3.4-.02,7.41.07,12.01,0,.32.12.6.35.83.23.23.51.36.85.38,2.71.18,6.62.27,11.72.27,3.18,0,6.68-.09,10.5-.27.17-6.97.19-14.34.07-22.12-.12-7.78-.34-16.73-.67-26.86-.33-10.13-.54-17.43-.63-21.89,0-.34-.12-.63-.36-.86-.24-.23-.52-.35-.84-.35-4.85-.18-10.54-.27-17.07-.27h0ZM188.84,60.58c-.08,2.52-.25,6.82-.5,12.9-.25,6.08-.42,10.76-.52,14.04h-6.76c.74-2.5,1.98-6.8,3.72-12.9,1.74-6.1,3.09-10.78,4.07-14.04h0Z" fill="url(#g)" stroke-width="0"/><path d="M219.23,80.28c.98-5.56,2.35-10.45,4.1-14.67,1.75-4.21,3.79-7.72,6.1-10.51,2.31-2.79,5.01-5.06,8.09-6.82,3.08-1.75,6.34-3,9.77-3.74,3.43-.74,7.25-1.11,11.46-1.11,2.24,0,4.33.17,6.26.5,1.93.33,4.29.85,7.07,1.55l-5.9,18.83-10.95-.75c-.93-.06-1.79.02-2.56.24-.78.22-1.58.69-2.41,1.41-.83.72-1.58,1.7-2.26,2.93-.68,1.23-1.34,2.87-1.98,4.91-.64,2.04-1.21,4.45-1.7,7.24s-.8,5.22-.9,7.25c-.11,2.03-.06,3.67.15,4.92.21,1.25.6,2.23,1.17,2.93.57.7,1.21,1.17,1.93,1.4.72.23,1.61.31,2.66.23l11.21-.72-.88,18.98c-4.94.88-9.62,1.32-14.05,1.32-2.34,0-4.48-.09-6.41-.26-1.93-.17-3.82-.46-5.66-.87-1.84-.41-3.48-.95-4.93-1.61-1.44-.66-2.79-1.5-4.04-2.52-1.25-1.02-2.31-2.21-3.17-3.56-.86-1.35-1.59-2.93-2.17-4.73s-.97-3.82-1.15-6.07c-.19-2.24-.19-4.76,0-7.55.18-2.79.56-5.84,1.15-9.14Z" fill="url(#h)" stroke-width="0"/><path d="M258.76,44.43c2.18,0,4.23.16,6.1.48,1.66.28,3.66.71,5.97,1.28l-5.35,17.06-10.17-.7c-.22-.01-.44-.02-.65-.02-.79,0-1.55.1-2.25.3-.92.26-1.86.81-2.8,1.62-.91.79-1.75,1.87-2.48,3.2-.71,1.28-1.4,3-2.05,5.09-.65,2.07-1.23,4.55-1.73,7.36-.5,2.83-.81,5.31-.92,7.37-.11,2.1-.06,3.83.16,5.14.24,1.42.7,2.56,1.37,3.39.69.85,1.5,1.43,2.4,1.72.63.2,1.36.3,2.18.3.27,0,.56-.01.85-.03l10.09-.65-.79,17.06c-4.57.78-8.97,1.17-13.08,1.17-2.3,0-4.43-.08-6.32-.25-1.88-.17-3.74-.45-5.53-.85-1.76-.39-3.35-.91-4.73-1.54-1.36-.62-2.65-1.43-3.83-2.39-1.16-.95-2.16-2.07-2.96-3.32-.81-1.27-1.51-2.79-2.06-4.5-.56-1.72-.93-3.69-1.11-5.84-.18-2.18-.18-4.67,0-7.4.18-2.74.56-5.78,1.13-9.04.96-5.47,2.32-10.33,4.04-14.46,1.71-4.1,3.71-7.55,5.95-10.26,2.22-2.69,4.86-4.9,7.82-6.59,2.98-1.69,6.17-2.91,9.49-3.63,3.35-.72,7.13-1.09,11.25-1.09M258.76,43.43c-4.2,0-8.02.37-11.46,1.11-3.43.74-6.69,1.99-9.77,3.74-3.08,1.75-5.78,4.02-8.09,6.82-2.31,2.79-4.35,6.3-6.1,10.51-1.75,4.21-3.12,9.1-4.1,14.67-.58,3.3-.97,6.35-1.15,9.14-.18,2.79-.18,5.31,0,7.55.19,2.24.57,4.26,1.15,6.07s1.31,3.38,2.17,4.73c.86,1.35,1.92,2.54,3.17,3.56,1.25,1.02,2.6,1.86,4.04,2.52,1.45.66,3.09,1.2,4.93,1.61,1.84.41,3.73.7,5.66.87,1.93.17,4.07.26,6.41.26,4.42,0,9.11-.44,14.05-1.32l.88-18.98-11.21.72c-.27.02-.53.03-.78.03-.72,0-1.34-.09-1.88-.26-.72-.23-1.36-.7-1.93-1.4-.57-.7-.96-1.68-1.17-2.93-.21-1.25-.26-2.89-.15-4.92.11-2.03.41-4.45.9-7.25.49-2.78,1.06-5.19,1.7-7.24.64-2.04,1.3-3.68,1.98-4.91.68-1.23,1.43-2.21,2.26-2.93.83-.72,1.63-1.19,2.41-1.41.61-.17,1.27-.26,1.98-.26.19,0,.39,0,.59.02l10.95.75,5.9-18.83c-2.78-.7-5.14-1.22-7.07-1.55-1.93-.33-4.02-.5-6.26-.5h0ZM260.55,96.28h0,0Z" fill="url(#i)" stroke-width="0"/><path d="M273.23,53.4c.57-3.22,1.14-6.27,1.73-9.13,3.86-.18,13.14-.27,27.85-.27,11.63,0,19.88.09,24.76.27.32,0,.58.12.78.36s.27.52.21.84c-.72,4.52-1.28,7.93-1.68,10.21-.58,3.26-1.15,6.27-1.71,9.01-1.31.06-6.17.13-14.57.21-.68,4.32-1.55,9.46-2.6,15.41-1.98,11.21-4.26,23.22-6.83,36.04-3.84.18-7.36.27-10.56.27s-7.39-.09-12.26-.27c-.32,0-.58-.12-.78-.36s-.27-.52-.21-.84c2.33-15.05,4.22-26.67,5.66-34.83.65-3.7,1.61-8.88,2.86-15.53-4.59-.1-9.01-.21-13.27-.33-.32,0-.58-.12-.78-.36s-.27-.52-.21-.84c.73-4.6,1.27-7.89,1.62-9.85Z" fill="url(#j)" stroke-width="0"/><path d="M302.82,45c11.56,0,19.88.09,24.76.26l1-.1-1,.15c-.73,4.59-1.28,7.92-1.68,10.19-.52,2.92-1.03,5.68-1.55,8.21-1.99.05-6.61.12-13.76.18-.49,0-.9.36-.98.84-.68,4.32-1.56,9.5-2.59,15.39-1.92,10.91-4.17,22.76-6.68,35.25-3.51.16-6.78.23-9.73.23-3.27,0-7.39-.09-12.27-.26v-.06c2.33-14.98,4.23-26.69,5.67-34.81.65-3.68,1.61-8.9,2.86-15.51.05-.29-.02-.59-.21-.82-.19-.23-.46-.36-.75-.37-4.51-.1-8.98-.21-13.3-.32l-1,.1,1-.15c.73-4.58,1.27-7.89,1.61-9.83.51-2.91,1.04-5.71,1.57-8.34,4.23-.16,13.31-.24,27.03-.24M302.82,44c-14.71,0-24,.09-27.85.27-.58,2.86-1.16,5.91-1.73,9.13-.35,1.96-.88,5.25-1.62,9.85-.06.32.01.6.21.84s.46.36.78.36c4.26.12,8.69.23,13.27.33-1.25,6.65-2.2,11.82-2.86,15.53-1.44,8.17-3.33,19.78-5.66,34.83-.06.32.01.6.21.84.2.24.46.36.78.36,4.87.18,8.96.27,12.26.27s6.72-.09,10.56-.27c2.58-12.81,4.86-24.82,6.83-36.04,1.05-5.95,1.91-11.08,2.6-15.41,8.4-.08,13.26-.15,14.57-.21.56-2.74,1.13-5.75,1.71-9.01.4-2.28.96-5.69,1.68-10.21.06-.32-.01-.6-.21-.84s-.46-.36-.78-.36c-4.87-.18-13.13-.27-24.76-.27h0Z" fill="url(#k)" stroke-width="0"/><path d="M328.2,80.31c1.98-11.21,4.25-23.22,6.83-36.04,3.83-.18,7.35-.27,10.56-.27s7.39.09,12.26.27c.32,0,.58.12.78.36s.27.52.21.84c-2.34,15.06-4.22,26.67-5.66,34.83-1.98,11.21-4.26,23.22-6.83,36.04-3.84.18-7.36.27-10.56.27s-7.39-.09-12.26-.27c-.32,0-.58-.12-.78-.36s-.27-.52-.21-.84c2.33-15.05,4.22-26.67,5.66-34.83Z" fill="url(#l)" stroke-width="0"/><path d="M345.6,45c3.27,0,7.38.09,12.27.26v.06c-2.34,15.02-4.24,26.74-5.67,34.81-1.92,10.89-4.17,22.74-6.68,35.25-3.51.16-6.78.23-9.73.23-3.27,0-7.39-.09-12.27-.26v-.06c2.33-14.98,4.23-26.69,5.67-34.81,1.93-10.93,4.17-22.78,6.68-35.25,3.51-.16,6.78-.23,9.73-.23M345.6,44c-3.2,0-6.72.09-10.56.27-2.58,12.81-4.86,24.82-6.83,36.04-1.44,8.17-3.33,19.78-5.66,34.83-.06.32.01.6.21.84.2.24.46.36.78.36,4.87.18,8.96.27,12.26.27s6.72-.09,10.56-.27c2.58-12.81,4.86-24.82,6.83-36.04,1.44-8.17,3.33-19.78,5.66-34.83.06-.32-.01-.6-.21-.84s-.46-.36-.78-.36c-4.87-.18-8.96-.27-12.26-.27h0Z" fill="url(#m)" stroke-width="0"/><path d="M360.18,80.28c1.03-5.83,2.57-11.02,4.64-15.57,2.06-4.55,4.55-8.35,7.46-11.4s6.2-5.4,9.86-7.06c3.67-1.66,7.64-2.6,11.92-2.82,3.9,0,7.34.27,10.31.8,2.97.53,5.63,1.39,7.97,2.58,2.34,1.19,4.25,2.74,5.71,4.64,1.47,1.9,2.58,4.21,3.36,6.94.77,2.72,1.13,5.9,1.08,9.52-.05,3.62-.48,7.75-1.29,12.37-1.03,5.83-2.58,11.02-4.67,15.57-2.08,4.55-4.6,8.35-7.55,11.38-2.95,3.03-6.26,5.38-9.93,7.03-3.67,1.65-7.66,2.59-11.97,2.81-3.88,0-7.31-.27-10.26-.8-2.96-.53-5.6-1.39-7.93-2.57-2.32-1.18-4.22-2.72-5.67-4.61-1.46-1.89-2.56-4.2-3.31-6.92-.75-2.72-1.1-5.89-1.04-9.5.06-3.61.49-7.74,1.31-12.39ZM385.28,80.28c-.49,2.8-.82,5.19-.98,7.15-.16,1.96-.19,3.51-.1,4.64.09,1.13.33,2.01.72,2.63.39.62.82,1.02,1.29,1.2.47.18,1.06.27,1.78.27s1.34-.09,1.85-.27c.51-.18,1.06-.58,1.65-1.2.59-.62,1.12-1.5,1.59-2.63.47-1.13.96-2.68,1.48-4.64s1.02-4.34,1.52-7.15c.41-2.32.71-4.36.9-6.11.19-1.75.25-3.2.19-4.34-.06-1.14-.17-2.08-.35-2.81-.17-.73-.46-1.28-.87-1.64s-.81-.6-1.22-.74c-.41-.13-.91-.2-1.51-.2s-1.12.06-1.55.18c-.43.12-.89.37-1.38.74-.49.37-.93.92-1.33,1.65-.4.73-.81,1.67-1.23,2.82-.42,1.15-.84,2.59-1.24,4.32-.41,1.73-.81,3.77-1.23,6.11Z" fill="url(#n)" stroke-width="0"/><path d="M394.09,44.43c3.81,0,7.21.26,10.11.78,2.86.51,5.45,1.35,7.69,2.49,2.2,1.12,4.01,2.58,5.37,4.36,1.38,1.79,2.45,4.01,3.19,6.6.74,2.62,1.09,5.73,1.05,9.23-.05,3.56-.48,7.67-1.28,12.21-1.01,5.72-2.55,10.87-4.59,15.33-2.03,4.43-4.5,8.16-7.36,11.1-2.84,2.93-6.08,5.22-9.63,6.81-3.53,1.59-7.43,2.5-11.58,2.72-3.79,0-7.18-.26-10.06-.78-2.85-.51-5.42-1.34-7.65-2.47-2.18-1.11-3.97-2.56-5.33-4.33-1.37-1.78-2.43-3.99-3.14-6.58-.72-2.62-1.06-5.72-1.01-9.22.05-3.54.49-7.66,1.3-12.23,1.01-5.71,2.54-10.87,4.56-15.33,2.01-4.43,4.46-8.17,7.27-11.12,2.81-2.94,6.02-5.24,9.55-6.84,3.53-1.6,7.41-2.52,11.54-2.73M388.01,97.16c.83,0,1.57-.11,2.18-.33.67-.24,1.34-.71,2.05-1.46.68-.72,1.27-1.67,1.79-2.93.48-1.17,1-2.77,1.52-4.77.52-1.99,1.04-4.42,1.53-7.23.41-2.33.72-4.41.91-6.18.19-1.79.26-3.31.2-4.5-.06-1.22-.18-2.19-.37-2.98-.22-.93-.61-1.66-1.18-2.16-.51-.45-1.04-.77-1.58-.94-.51-.16-1.11-.24-1.81-.24s-1.3.07-1.82.22c-.56.16-1.12.45-1.71.9-.6.45-1.13,1.12-1.6,1.97-.42.77-.86,1.77-1.29,2.96-.44,1.18-.87,2.68-1.28,4.44-.41,1.74-.82,3.81-1.24,6.17-.5,2.82-.83,5.26-.99,7.24-.16,2.03-.19,3.6-.1,4.8.1,1.31.39,2.32.87,3.08.51.81,1.1,1.35,1.78,1.6.59.23,1.29.34,2.14.34M394.06,43.43c-4.28.22-8.26,1.16-11.92,2.82-3.67,1.66-6.95,4.01-9.86,7.06-2.91,3.04-5.39,6.84-7.46,11.4-2.06,4.55-3.61,9.74-4.64,15.57-.82,4.65-1.26,8.77-1.31,12.39-.06,3.61.29,6.78,1.04,9.5.75,2.72,1.86,5.03,3.31,6.92,1.46,1.89,3.35,3.43,5.67,4.61,2.32,1.18,4.97,2.04,7.93,2.57,2.96.53,6.38.8,10.26.8,4.3-.22,8.29-1.16,11.97-2.81,3.67-1.65,6.99-3.99,9.93-7.03,2.95-3.03,5.46-6.83,7.55-11.38,2.08-4.55,3.64-9.74,4.67-15.57.82-4.62,1.25-8.75,1.29-12.37.05-3.62-.31-6.8-1.08-9.52-.77-2.72-1.89-5.03-3.36-6.94-1.47-1.9-3.37-3.45-5.71-4.64-2.34-1.19-5-2.05-7.97-2.58-2.97-.53-6.41-.8-10.31-.8h0ZM388.01,96.16c-.72,0-1.32-.09-1.78-.27-.47-.18-.9-.58-1.29-1.2-.39-.62-.63-1.5-.72-2.63-.09-1.13-.06-2.68.1-4.64.16-1.96.48-4.34.98-7.15.41-2.34.82-4.38,1.23-6.11.4-1.73.82-3.17,1.24-4.32.42-1.15.83-2.09,1.23-2.82.4-.73.84-1.28,1.33-1.65.49-.37.94-.62,1.38-.74.43-.12.95-.18,1.55-.18s1.1.07,1.51.2c.41.13.81.38,1.22.74s.7.91.87,1.64c.17.73.29,1.67.35,2.81.06,1.14,0,2.59-.19,4.34-.19,1.75-.49,3.79-.9,6.11-.49,2.8-1,5.19-1.52,7.15s-1.01,3.51-1.48,4.64c-.47,1.13-1,2.01-1.59,2.63-.59.62-1.14,1.02-1.65,1.2-.51.18-1.13.27-1.85.27h0Z" fill="url(#o)" stroke-width="0"/><path d="M428.18,80.31c1.98-11.21,4.25-23.22,6.83-36.04,3.84-.18,7.15-.27,9.96-.27,2.38,0,5.83.09,10.34.27.58.02.95.42,1.11,1.2l7.01,30.75,5.21-31.95c3.86-.18,7.37-.27,10.56-.27s6.81.09,11.06.27c.34.02.6.15.79.38.19.23.26.51.2.83-2.33,15.06-4.22,26.67-5.66,34.83-1.98,11.21-4.26,23.22-6.83,36.04-3.36.18-6.47.27-9.36.27-3.42,0-7.07-.09-10.94-.27-.6-.02-.97-.42-1.11-1.2l-7.01-30.75-5.21,31.95c-3.84.18-7.16.27-9.96.27-3.16,0-7.05-.09-11.66-.27-.34-.02-.6-.15-.79-.38-.19-.23-.26-.51-.2-.83,2.33-15.05,4.22-26.67,5.66-34.83Z" fill="url(#p)" stroke-width="0"/><path d="M479.2,45c3.09,0,6.8.09,11,.27.02,0,.04,0,.05,0,0,0,.01,0,.02,0,0,.02,0,.05,0,.05-2.32,14.98-4.23,26.69-5.66,34.81-1.93,10.93-4.17,22.78-6.68,35.25-3.04.15-5.9.23-8.53.23-3.39,0-7.06-.09-10.93-.26,0,0-.08-.08-.15-.43l-7.01-30.75c-.1-.46-.51-.78-.97-.78-.01,0-.02,0-.03,0-.48.01-.88.37-.96.84l-5.08,31.15c-3.47.15-6.53.23-9.1.23-3.13,0-7.04-.09-11.61-.27-.03,0-.04,0-.06,0,0,0,0,0,0,0,0-.02,0-.05,0-.05,2.32-14.98,4.23-26.69,5.66-34.81,1.93-10.93,4.17-22.78,6.68-35.25,3.48-.16,6.55-.23,9.13-.23,2.35,0,5.82.09,10.31.26,0,0,.09.09.16.43l7.01,30.75c.1.46.51.78.97.78.01,0,.02,0,.03,0,.48-.01.88-.37.96-.84l5.08-31.15c3.52-.15,6.78-.23,9.7-.23M479.2,44c-3.18,0-6.7.09-10.56.27l-5.21,31.95-7.01-30.75c-.16-.78-.53-1.18-1.11-1.2-4.51-.18-7.96-.27-10.34-.27-2.8,0-6.12.09-9.96.27-2.58,12.81-4.86,24.82-6.83,36.04-1.44,8.17-3.33,19.78-5.66,34.83-.06.32.01.6.2.83.19.23.45.36.79.38,4.61.18,8.5.27,11.66.27,2.8,0,6.12-.09,9.96-.27l5.21-31.95,7.01,30.75c.14.78.51,1.18,1.11,1.2,3.87.18,7.52.27,10.94.27,2.88,0,6-.09,9.36-.27,2.58-12.81,4.86-24.82,6.83-36.04,1.44-8.17,3.33-19.78,5.66-34.83.06-.32-.01-.6-.2-.83-.19-.23-.45-.36-.79-.38-4.25-.18-7.94-.27-11.06-.27h0Z" fill="url(#q)" stroke-width="0"/><path d="M142.82,209.84l2.94-21.71c8.85,2.78,15.95,4.17,21.29,4.17,2.08,0,3.67-.44,4.76-1.31,1.09-.87,1.64-1.85,1.64-2.93,0-.4-.08-.77-.24-1.1-.16-.33-.45-.64-.86-.93-.41-.29-.8-.54-1.17-.75-.37-.21-.93-.44-1.68-.69-.75-.25-1.38-.45-1.88-.6-.5-.15-1.24-.36-2.22-.65-1.78-.5-3.17-.91-4.16-1.22-.99-.31-2.39-.84-4.2-1.58-1.81-.74-3.26-1.49-4.34-2.24-1.08-.75-2.32-1.77-3.71-3.06-1.39-1.29-2.47-2.69-3.24-4.19-.77-1.5-1.43-3.33-1.98-5.48-.55-2.15-.83-4.51-.83-7.07,0-2.74.25-5.17.75-7.3.5-2.12,1.16-3.91,1.97-5.38.81-1.46,1.93-2.7,3.35-3.72,1.42-1.02,2.84-1.82,4.25-2.4,1.41-.58,3.19-1.03,5.35-1.34,2.15-.31,4.15-.51,6.01-.6,1.85-.09,4.12-.13,6.8-.13,6.59,0,14.31.88,23.18,2.64l-2.7,19.97c-3.06-1.38-6.56-2.54-10.48-3.48-3.92-.94-7.65-1.41-11.17-1.41-1.86,0-3.33.3-4.41.89-1.08.59-1.62,1.43-1.62,2.51,0,.34.08.66.26.96.17.3.48.59.92.87s.86.53,1.26.74c.4.21,1,.46,1.8.74.8.28,1.47.5,2,.66.53.16,1.33.4,2.39.72,4.92,1.48,8.64,2.82,11.14,4.02,6.57,3.14,10.75,7.45,12.55,12.91.72,2.2,1.08,4.6,1.08,7.21s-.27,5.12-.8,7.33c-.53,2.2-1.26,4.11-2.19,5.72-.93,1.61-2.1,3.03-3.5,4.26-1.4,1.23-2.91,2.24-4.53,3.02-1.62.78-3.45,1.42-5.5,1.91-2.04.49-4.1.84-6.17,1.04-2.07.2-4.32.3-6.74.3-8.39,0-16.84-.44-25.34-1.32Z" fill="url(#r)" stroke-width="0"/><path d="M171.41,138.65c6.26,0,13.68.82,22.07,2.44l-2.4,17.73c-2.81-1.17-5.98-2.18-9.43-3.01-3.98-.96-7.82-1.44-11.4-1.44-2.02,0-3.67.34-4.89,1.01-1.77.97-2.14,2.38-2.14,3.39,0,.51.13,1,.38,1.45.25.45.66.85,1.25,1.22.46.29.91.56,1.33.78.45.24,1.08.5,1.94.79.8.28,1.49.51,2.04.67l1.66.5.72.22c4.85,1.46,8.55,2.79,11,3.97,6.28,3.01,10.33,7.15,12.03,12.32.68,2.09,1.03,4.41,1.03,6.9s-.26,4.98-.77,7.09c-.51,2.1-1.21,3.93-2.09,5.45-.87,1.51-1.98,2.86-3.29,4.01-1.33,1.16-2.77,2.13-4.31,2.87-1.55.75-3.33,1.36-5.3,1.84-1.98.48-4.01.82-6.03,1.01-2.03.2-4.27.3-6.65.3-7.98,0-16.12-.41-24.21-1.21l2.65-19.52c8.39,2.57,15.27,3.87,20.46,3.87,2.3,0,4.12-.51,5.38-1.53,1.34-1.07,2.01-2.31,2.01-3.71,0-.55-.11-1.07-.34-1.53-.23-.48-.63-.92-1.18-1.31-.44-.31-.86-.58-1.25-.8-.43-.24-1.04-.5-1.86-.77-.76-.25-1.4-.46-1.91-.61-.5-.15-1.25-.37-2.24-.65-1.76-.49-3.15-.9-4.13-1.21-.96-.3-2.35-.82-4.12-1.55-1.73-.71-3.13-1.43-4.15-2.13-1.04-.72-2.25-1.72-3.6-2.98-1.3-1.21-2.32-2.52-3.03-3.91-.73-1.43-1.37-3.2-1.9-5.27-.53-2.06-.79-4.36-.79-6.82,0-2.65.24-5.03.72-7.07.48-2.02,1.1-3.74,1.87-5.12.73-1.33,1.76-2.47,3.06-3.4,1.35-.97,2.71-1.74,4.05-2.29,1.33-.55,3.05-.97,5.11-1.27,2.12-.31,4.11-.5,5.91-.59,1.83-.09,4.1-.13,6.75-.13M171.41,137.65c-2.68,0-4.95.04-6.8.13-1.85.09-3.85.29-6.01.6-2.15.31-3.93.76-5.35,1.34-1.41.58-2.83,1.38-4.25,2.4-1.42,1.02-2.54,2.26-3.35,3.72-.81,1.46-1.47,3.25-1.97,5.38-.5,2.12-.75,4.55-.75,7.3,0,2.56.27,4.92.83,7.07.55,2.15,1.21,3.98,1.98,5.48.77,1.5,1.85,2.9,3.24,4.19,1.39,1.29,2.63,2.31,3.71,3.06,1.08.75,2.53,1.5,4.34,2.24,1.81.74,3.21,1.27,4.2,1.58.99.31,2.38.72,4.16,1.22.98.28,1.72.5,2.22.65.5.15,1.13.35,1.88.6.75.25,1.31.48,1.68.69.37.21.76.46,1.17.75.41.29.7.6.86.93.16.33.24.7.24,1.1,0,1.08-.55,2.06-1.64,2.93-1.09.87-2.68,1.31-4.76,1.31-5.34,0-12.44-1.39-21.29-4.17l-2.94,21.71c8.51.88,16.96,1.32,25.34,1.32,2.42,0,4.67-.1,6.74-.3,2.07-.2,4.13-.54,6.17-1.04,2.04-.49,3.87-1.13,5.5-1.91,1.62-.78,3.13-1.79,4.53-3.02,1.4-1.23,2.57-2.65,3.5-4.26.93-1.61,1.66-3.52,2.19-5.72.53-2.2.8-4.64.8-7.33s-.36-5-1.08-7.21c-1.8-5.46-5.99-9.77-12.55-12.91-2.5-1.2-6.22-2.54-11.14-4.02-1.06-.32-1.86-.56-2.39-.72-.53-.16-1.2-.38-2-.66-.8-.28-1.4-.53-1.8-.74-.4-.21-.82-.46-1.26-.74s-.75-.57-.92-.87c-.17-.3-.26-.62-.26-.96,0-1.08.54-1.92,1.62-2.51,1.08-.59,2.55-.89,4.41-.89,3.52,0,7.25.47,11.17,1.41,3.92.94,7.42,2.1,10.48,3.48l2.7-19.97c-8.87-1.76-16.6-2.64-23.18-2.64h0Z" fill="url(#s)" stroke-width="0"/><path d="M204.34,174.52c0-4.02.04-9.86.12-17.51.08-7.65.12-13.42.12-17.33,8.87-1.36,16.68-2.04,23.42-2.04,3.22,0,5.97.07,8.24.21,2.27.14,4.62.44,7.06.9,2.43.46,4.46,1.11,6.08,1.94s3.19,1.95,4.71,3.35c1.52,1.4,2.72,3.1,3.59,5.09.87,1.99,1.57,4.4,2.09,7.24.52,2.83.78,6.07.78,9.71,0,2.52-.15,4.84-.45,6.97-.3,2.12-.73,4.04-1.29,5.75-.56,1.71-1.28,3.26-2.15,4.64-.87,1.38-1.84,2.6-2.91,3.65-1.07,1.05-2.3,1.97-3.69,2.75-1.39.78-2.86,1.44-4.4,1.97-1.54.53-3.25.96-5.13,1.28-1.88.32-3.8.55-5.75.69-1.95.14-4.09.21-6.41.21.16,9.21.24,14.73.24,16.58-3.74.16-7.27.24-10.57.24-2.68,0-6.77-.08-12.25-.24-.32,0-.6-.12-.84-.36s-.36-.52-.36-.84c0-3.7-.04-9.42-.12-17.15-.08-7.73-.12-13.62-.12-17.69ZM228.12,174.28h1.89c.74,0,1.38-.04,1.91-.12.53-.08,1.08-.28,1.65-.59.57-.31,1.03-.74,1.38-1.29.35-.55.64-1.32.87-2.3.23-.98.35-2.16.35-3.54s-.02-2.42-.04-3.23c-.03-.81-.12-1.56-.27-2.24-.15-.68-.33-1.18-.54-1.5-.21-.32-.54-.6-.98-.84s-.92-.38-1.43-.44c-.51-.05-1.2-.08-2.06-.08h-2.73v16.16Z" fill="url(#t)" stroke-width="0"/><path d="M228,138.65c3.18,0,5.94.07,8.18.21,2.23.14,4.56.44,6.93.89,2.33.44,4.28,1.06,5.81,1.84,1.53.79,3.04,1.86,4.49,3.19,1.41,1.3,2.54,2.9,3.35,4.75.84,1.91,1.51,4.27,2.02,7.02.51,2.76.76,5.97.76,9.53,0,2.46-.15,4.76-.44,6.83-.29,2.05-.71,3.93-1.25,5.58-.53,1.63-1.22,3.11-2.04,4.42-.83,1.31-1.76,2.47-2.77,3.47-1,.98-2.18,1.86-3.48,2.59-1.33.75-2.76,1.38-4.24,1.89-1.49.51-3.16.93-4.98,1.24-1.84.31-3.74.54-5.65.68-1.92.14-4.06.21-6.34.21-.27,0-.53.11-.71.3s-.29.45-.29.72c.14,7.91.22,13.14.24,15.6-3.36.13-6.58.2-9.57.2-2.66,0-6.77-.08-12.25-.24-.03,0-.07,0-.13-.07s-.07-.1-.07-.13c0-3.69-.04-9.31-.12-17.16-.08-7.69-.12-13.64-.12-17.68s.04-9.89.12-17.5c.08-7.22.11-12.62.12-16.48,8.43-1.26,15.97-1.9,22.42-1.9M228.12,175.28h1.89c.79,0,1.48-.04,2.06-.13.64-.1,1.31-.33,1.98-.7.72-.39,1.31-.94,1.75-1.63.41-.65.74-1.5,1-2.61.25-1.05.37-2.32.37-3.77,0-1.34-.02-2.44-.05-3.27-.03-.87-.13-1.68-.29-2.41-.18-.81-.4-1.41-.68-1.84-.3-.46-.75-.85-1.33-1.17-.56-.3-1.16-.49-1.81-.55-.54-.05-1.27-.08-2.15-.08h-2.73c-.55,0-1,.45-1,1v16.16c0,.55.45,1,1,1M228,137.65c-6.75,0-14.55.68-23.42,2.04,0,3.9-.04,9.68-.12,17.33-.08,7.65-.12,13.48-.12,17.51s.04,9.96.12,17.69c.08,7.73.12,13.44.12,17.15,0,.32.12.6.36.84s.52.36.84.36c5.48.16,9.57.24,12.25.24,3.3,0,6.83-.08,10.57-.24,0-1.84-.08-7.37-.24-16.58,2.32,0,4.46-.07,6.41-.21,1.95-.14,3.87-.37,5.75-.69,1.88-.32,3.59-.75,5.13-1.28,1.54-.53,3.01-1.19,4.4-1.97,1.39-.78,2.62-1.7,3.69-2.75,1.07-1.05,2.04-2.27,2.91-3.65.87-1.38,1.59-2.93,2.15-4.64.56-1.71.99-3.63,1.29-5.75.3-2.12.45-4.44.45-6.97,0-3.64-.26-6.88-.78-9.71-.52-2.83-1.22-5.24-2.09-7.24-.87-1.99-2.07-3.69-3.59-5.09-1.52-1.4-3.09-2.52-4.71-3.35s-3.65-1.48-6.08-1.94c-2.43-.46-4.78-.76-7.06-.9-2.27-.14-5.02-.21-8.24-.21h0ZM228.12,174.28v-16.16h2.73c.86,0,1.55.03,2.06.08.51.05.99.2,1.43.44s.77.52.98.84c.21.32.39.82.54,1.5.15.68.24,1.43.27,2.24.03.81.04,1.89.04,3.23s-.12,2.56-.35,3.54c-.23.98-.52,1.75-.87,2.3-.35.55-.81.98-1.38,1.29-.57.31-1.12.51-1.65.59-.53.08-1.17.12-1.91.12h-1.89Z" fill="url(#u)" stroke-width="0"/><path d="M260.06,209.57c0-.32.19-1.57.57-3.75,1.06-6.59,2.27-13.41,3.63-20.46s3.12-15.82,5.29-26.28,3.57-17.32,4.23-20.58c4-.18,9.51-.27,16.52-.27,6.53,0,12.23.09,17.12.27.32,0,.62.12.9.34.28.23.45.52.51.86.88,4.46,2.38,11.76,4.49,21.89,2.11,10.13,3.91,19.08,5.41,26.86,1.49,7.78,2.77,15.15,3.83,22.12-3.78.18-7.27.27-10.45.27-5.1,0-9.03-.09-11.77-.27-.34-.02-.65-.15-.92-.38-.27-.23-.44-.5-.5-.83-.9-4.6-1.63-8.61-2.19-12.01h-11.14c-.64,4.28-1.41,8.69-2.31,13.21-3.84.18-7.16.27-9.94.27-3.32,0-7.42-.09-12.28-.27-.3,0-.54-.09-.72-.29s-.27-.43-.27-.71ZM287.6,181.73h6.76c-.48-3.28-1.13-7.96-1.95-14.04-.82-6.08-1.41-10.38-1.77-12.9-.4,3.26-.93,7.94-1.59,14.04-.66,6.1-1.14,10.39-1.44,12.9Z" fill="url(#v)" stroke-width="0"/><path d="M290.3,139.22c6.49,0,12.24.09,17.12.27.04,0,.12,0,.27.12.12.1.15.18.16.28.88,4.46,2.39,11.83,4.49,21.9,2.1,10.08,3.92,19.11,5.4,26.84,1.4,7.32,2.63,14.37,3.65,20.98-3.34.15-6.46.22-9.29.22-5.05,0-8.99-.09-11.71-.27-.12,0-.22-.05-.33-.14-.12-.1-.15-.18-.16-.26-.9-4.58-1.63-8.61-2.19-11.98-.08-.48-.5-.84-.99-.84h-11.14c-.5,0-.92.36-.99.85-.6,4.01-1.32,8.18-2.15,12.4-3.5.16-6.56.23-9.11.23-3.28,0-7.4-.09-12.25-.27,0,0-.02,0-.03,0,0-.13.06-.74.56-3.59,1.06-6.55,2.28-13.43,3.63-20.43,1.36-7.02,3.13-15.86,5.28-26.26,2-9.66,3.37-16.32,4.08-19.82,3.9-.16,9.17-.24,15.69-.24M287.6,182.73h6.76c.29,0,.57-.13.76-.35.19-.22.27-.51.23-.8-.48-3.28-1.14-8-1.95-14.03-.84-6.23-1.42-10.45-1.77-12.9-.07-.49-.49-.86-.99-.86,0,0,0,0,0,0-.5,0-.92.38-.98.88-.4,3.24-.93,7.97-1.59,14.05-.66,6.06-1.14,10.4-1.44,12.89-.03.28.06.57.24.78s.46.34.75.34M290.3,138.22c-7.01,0-12.51.09-16.52.27-.66,3.26-2.07,10.12-4.23,20.58s-3.92,19.22-5.29,26.28-2.57,13.88-3.63,20.46c-.38,2.18-.57,3.43-.57,3.75,0,.28.09.52.27.71s.42.29.72.29c4.86.18,8.96.27,12.28.27,2.78,0,6.1-.09,9.94-.27.9-4.52,1.67-8.93,2.31-13.21h11.14c.56,3.4,1.29,7.41,2.19,12.01.06.32.23.6.5.83.27.23.58.36.92.38,2.74.18,6.67.27,11.77.27,3.18,0,6.67-.09,10.45-.27-1.06-6.97-2.34-14.34-3.83-22.12-1.49-7.78-3.29-16.73-5.41-26.86-2.11-10.13-3.61-17.43-4.49-21.89-.06-.34-.23-.63-.51-.86-.28-.23-.58-.34-.9-.34-4.88-.18-10.59-.27-17.12-.27h0ZM287.6,181.73c.3-2.5.78-6.8,1.44-12.9.66-6.1,1.19-10.78,1.59-14.04.36,2.52.95,6.82,1.77,12.9.82,6.08,1.47,10.76,1.95,14.04h-6.76Z" fill="url(#w)" stroke-width="0"/><path d="M324.49,174.49c0-5.57.51-10.46,1.52-14.67,1.01-4.21,2.43-7.72,4.25-10.51,1.82-2.79,4.12-5.06,6.89-6.82,2.77-1.75,5.81-3,9.11-3.74,3.3-.74,7.06-1.11,11.26-1.11,2.24,0,4.36.17,6.35.5s4.44.85,7.34,1.55l-2.58,18.83-11.08-.75c-.94-.06-1.78.02-2.52.24-.74.22-1.46.69-2.16,1.41-.7.72-1.28,1.7-1.74,2.93-.46,1.23-.83,2.87-1.11,4.91s-.42,4.46-.42,7.24.12,5.22.38,7.25c.25,2.03.59,3.67,1.02,4.92.43,1.25.99,2.23,1.68,2.93.69.7,1.42,1.17,2.18,1.4.76.23,1.66.31,2.7.23l11.08-.72,2.46,18.98c-4.79.88-9.39,1.32-13.81,1.32-2.34,0-4.5-.09-6.46-.26-1.96-.17-3.9-.46-5.81-.87-1.91-.41-3.65-.95-5.21-1.61-1.56-.66-3.06-1.5-4.49-2.52-1.43-1.02-2.7-2.21-3.8-3.56-1.1-1.35-2.1-2.93-3-4.73s-1.64-3.82-2.22-6.07c-.58-2.24-1.03-4.76-1.34-7.55-.31-2.79-.47-5.84-.47-9.14Z" fill="url(#x)" stroke-width="0"/><path d="M357.52,138.65c2.18,0,4.26.16,6.19.48,1.75.29,3.9.73,6.39,1.32l-2.33,17.01-10.15-.69c-.22-.01-.44-.02-.65-.02-.8,0-1.55.1-2.22.3-.9.27-1.78.83-2.59,1.67-.8.82-1.46,1.92-1.96,3.27-.48,1.29-.88,3.02-1.17,5.12-.28,2.08-.43,4.56-.43,7.37s.13,5.31.38,7.37c.26,2.09.62,3.82,1.07,5.13.48,1.39,1.12,2.5,1.91,3.3.81.82,1.68,1.38,2.6,1.65.66.2,1.4.3,2.22.3.27,0,.56-.01.84-.03l10.14-.66,2.22,17.1c-4.38.76-8.64,1.14-12.7,1.14-2.3,0-4.44-.08-6.37-.25-1.91-.17-3.82-.45-5.69-.85-1.84-.39-3.53-.92-5.03-1.55-1.49-.63-2.93-1.44-4.3-2.42-1.35-.96-2.57-2.1-3.6-3.38-1.05-1.29-2.02-2.82-2.88-4.55-.87-1.73-1.59-3.71-2.15-5.87-.57-2.18-1.01-4.68-1.31-7.41-.3-2.74-.46-5.78-.46-9.03,0-5.46.5-10.32,1.49-14.44.98-4.08,2.36-7.51,4.11-10.2,1.73-2.66,3.95-4.85,6.59-6.52,2.66-1.68,5.62-2.9,8.8-3.61,3.21-.72,6.93-1.09,11.04-1.09M357.52,137.65c-4.2,0-7.96.37-11.26,1.11-3.3.74-6.34,1.99-9.11,3.74-2.77,1.75-5.07,4.02-6.89,6.82-1.82,2.79-3.24,6.3-4.25,10.51-1.01,4.21-1.52,9.1-1.52,14.67,0,3.3.15,6.35.47,9.14.31,2.79.76,5.31,1.34,7.55.58,2.24,1.32,4.26,2.22,6.07s1.9,3.38,3,4.73c1.1,1.35,2.37,2.54,3.8,3.56,1.43,1.02,2.93,1.86,4.49,2.52,1.56.66,3.3,1.2,5.21,1.61,1.91.41,3.85.7,5.81.87,1.96.17,4.11.26,6.46.26,4.42,0,9.03-.44,13.81-1.32l-2.46-18.98-11.08.72c-.27.02-.53.03-.78.03-.72,0-1.36-.09-1.93-.26-.76-.23-1.49-.7-2.18-1.4-.69-.7-1.25-1.68-1.68-2.93-.43-1.25-.77-2.89-1.02-4.92-.25-2.03-.38-4.45-.38-7.25s.14-5.2.42-7.24.65-3.68,1.11-4.91c.46-1.23,1.04-2.21,1.74-2.93.7-.72,1.42-1.19,2.16-1.41.58-.17,1.23-.26,1.93-.26.19,0,.39,0,.59.02l11.08.75,2.58-18.83c-2.9-.7-5.35-1.22-7.34-1.55s-4.11-.5-6.35-.5h0Z" fill="url(#y)" stroke-width="0"/><path d="M377.48,174.52c0-11.21.16-23.22.48-36.04,3.8-.18,12.11-.27,24.92-.27,9.07,0,16.05.09,20.96.27.32,0,.6.12.84.36s.36.52.36.84c.08,4.88.12,8.35.12,10.39,0,3.14-.04,6.09-.12,8.83-3.38.16-9.75.24-19.1.24-1.68,0-3.2,0-4.56-.03-.04,2.76-.07,4.87-.09,6.31,7.17.04,11.96.11,14.38.21.32,0,.6.12.84.36s.36.52.36.84c.06,3.28.09,6.3.09,9.04,0,2.46-.03,5.13-.09,8.02h-15.59c.02,1.4.05,3.48.09,6.25h1.44c9.81,0,16.9.08,21.26.24.32,0,.6.12.84.36s.36.52.36.84c.08,4.88.12,8.35.12,10.39,0,3.14-.04,6.09-.12,8.83-3.8.18-10.67.27-20.6.27-1.98,0-6.2-.07-12.66-.2-6.46-.13-10.75-.24-12.87-.32-.32,0-.6-.12-.84-.36s-.36-.52-.36-.84c-.32-15.05-.48-26.67-.48-34.83Z" fill="url(#z)" stroke-width="0"/><path d="M402.88,139.22c9.02,0,16.06.09,20.96.27.04,0,.07,0,.13.07s.07.1.07.15c.08,4.82.12,8.31.12,10.37,0,2.78-.03,5.43-.09,7.87-3.54.13-9.63.2-18.13.2-1.69,0-3.22-.01-4.55-.03,0,0-.01,0-.02,0-.26,0-.51.1-.7.28-.19.18-.3.44-.3.7l-.05,3.23-.04,3.08c0,.27.1.52.29.71.19.19.44.3.71.3,7.14.04,11.97.11,14.39.21.04,0,.07,0,.13.07s.07.1.07.15c.06,3.23.09,6.26.09,9.02,0,2.19-.02,4.54-.07,7.02h-14.61c-.27,0-.52.11-.71.3-.19.19-.29.45-.29.72l.03,2.41.06,3.84c0,.55.45.99,1,.99h1.44c9.75,0,16.89.08,21.26.24.04,0,.07,0,.13.07s.07.1.07.15c.08,4.82.12,8.31.12,10.37,0,2.78-.03,5.43-.09,7.87-3.94.15-10.53.23-19.63.23-1.98,0-6.11-.06-12.64-.2-6.4-.13-10.73-.24-12.89-.32-.03,0-.07,0-.13-.07s-.07-.1-.07-.15c-.32-14.98-.48-26.69-.48-34.81,0-10.88.15-22.67.46-35.08,4.12-.15,12.16-.23,23.95-.23M402.88,138.22c-12.81,0-21.12.09-24.92.27-.32,12.81-.48,24.82-.48,36.04,0,8.17.16,19.78.48,34.83,0,.32.12.6.36.84s.52.36.84.36c2.12.08,6.41.18,12.87.32,6.46.13,10.68.2,12.66.2,9.93,0,16.79-.09,20.6-.27.08-2.74.12-5.69.12-8.83,0-2.04-.04-5.5-.12-10.39,0-.32-.12-.6-.36-.84s-.52-.36-.84-.36c-4.37-.16-11.45-.24-21.26-.24h-1.44c-.04-2.76-.07-4.84-.09-6.25h15.59c.06-2.88.09-5.56.09-8.02,0-2.74-.03-5.76-.09-9.04,0-.32-.12-.6-.36-.84s-.52-.36-.84-.36c-2.42-.1-7.22-.17-14.38-.21.02-1.44.05-3.54.09-6.31,1.36.02,2.88.03,4.56.03,9.35,0,15.71-.08,19.1-.24.08-2.74.12-5.69.12-8.83,0-2.04-.04-5.5-.12-10.39,0-.32-.12-.6-.36-.84s-.52-.36-.84-.36c-4.91-.18-11.89-.27-20.96-.27h0Z" fill="url(#aa)" stroke-width="0"/><path d="M432.75,174.52c0-11.21.16-23.22.48-36.04,3.8-.18,7.11-.27,9.91-.27,3.36,0,6.83.09,10.39.27.58.02,1.02.42,1.32,1.2l15.07,30.75,15.08-30.75c.56-.74,1.05-1.13,1.47-1.17,2.5-.2,5.31-.3,8.44-.3,3.36,0,7.07.09,11.11.27.34.02.62.15.86.38.23.23.35.51.35.83.32,15.05.48,26.67.48,34.83,0,11.21-.16,23.22-.48,36.04-3.44.18-6.55.27-9.31.27-2.5,0-6.21-.09-11.11-.27-.32,0-.6-.12-.84-.36s-.36-.52-.36-.84c-.06-2.24-.15-5.6-.27-10.08s-.22-8.54-.3-12.19c-.08-3.65-.13-7.15-.15-10.5l-13.69,27.96-1.32.24-1.2-.24-13.03-26.61.42,32.61c-3.8.18-7.11.27-9.91.27s-6.81-.09-11.71-.27c-.32,0-.6-.12-.84-.36s-.36-.52-.36-.84c-.32-15.05-.48-26.67-.48-34.83Z" fill="url(#ab)" stroke-width="0"/><path d="M494.91,139.22c3.34,0,7.06.09,11.05.27.11,0,.16.04.21.08.05.05.05.07.05.14.32,14.98.48,26.69.48,34.81,0,10.88-.15,22.68-.46,35.08-3.06.15-5.86.22-8.33.22s-6.19-.09-11.11-.27c-.03,0-.07,0-.13-.07-.07-.07-.07-.1-.07-.16l-.16-5.81-.11-4.27c-.12-4.47-.22-8.53-.3-12.19-.08-3.67-.13-7.2-.15-10.48,0-.46-.32-.87-.78-.97-.07-.02-.15-.03-.22-.03-.38,0-.73.21-.9.56l-13.47,27.5-.64.12-.53-.11-12.81-26.16c-.17-.35-.52-.56-.9-.56-.08,0-.15,0-.23.03-.45.11-.77.52-.77.99l.41,31.64c-3.38.15-6.37.23-8.9.23-2.86,0-6.79-.09-11.71-.27-.03,0-.07,0-.13-.07-.07-.07-.07-.1-.07-.15-.32-14.98-.48-26.69-.48-34.81,0-10.88.15-22.68.46-35.08,3.38-.15,6.38-.23,8.93-.23,3.34,0,6.82.09,10.36.27.19,0,.36.39.42.56.01.03.02.05.04.08l15.07,30.75c.17.34.52.56.9.56s.73-.22.9-.56l15.03-30.66c.48-.61.72-.7.7-.7h0c2.47-.2,5.28-.3,8.36-.3M494.91,138.22c-3.12,0-5.94.1-8.44.3-.42.04-.91.43-1.47,1.17l-15.08,30.75-15.07-30.75c-.3-.78-.74-1.18-1.32-1.2-3.56-.18-7.03-.27-10.39-.27-2.8,0-6.11.09-9.91.27-.32,12.81-.48,24.82-.48,36.04,0,8.17.16,19.78.48,34.83,0,.32.12.6.36.84s.52.36.84.36c4.9.18,8.81.27,11.71.27s6.11-.09,9.91-.27l-.42-32.61,13.03,26.61,1.2.24,1.32-.24,13.69-27.96c.02,3.34.07,6.84.15,10.5.08,3.65.18,7.72.3,12.19s.21,7.83.27,10.08c0,.32.12.6.36.84s.52.36.84.36c4.9.18,8.61.27,11.11.27,2.76,0,5.87-.09,9.31-.27.32-12.81.48-24.82.48-36.04,0-8.17-.16-19.78-.48-34.83,0-.32-.12-.6-.35-.83-.23-.23-.52-.36-.86-.38-4.04-.18-7.75-.27-11.11-.27h0Z" fill="url(#ac)" stroke-width="0"/><path d="M512.74,209.57c0-.32.19-1.57.57-3.75,1.06-6.59,2.27-13.41,3.63-20.46s3.12-15.82,5.29-26.28,3.57-17.32,4.23-20.58c4-.18,9.51-.27,16.52-.27,6.53,0,12.23.09,17.12.27.32,0,.62.12.9.34.28.23.45.52.51.86.88,4.46,2.38,11.76,4.49,21.89s3.91,19.08,5.41,26.86c1.49,7.78,2.77,15.15,3.83,22.12-3.78.18-7.27.27-10.45.27-5.1,0-9.03-.09-11.77-.27-.34-.02-.65-.15-.92-.38-.27-.23-.44-.5-.5-.83-.9-4.6-1.63-8.61-2.19-12.01h-11.14c-.64,4.28-1.41,8.69-2.31,13.21-3.84.18-7.16.27-9.94.27-3.32,0-7.42-.09-12.28-.27-.3,0-.54-.09-.72-.29s-.27-.43-.27-.71ZM540.27,181.73h6.76c-.48-3.28-1.13-7.96-1.95-14.04-.82-6.08-1.41-10.38-1.77-12.9-.4,3.26-.93,7.94-1.59,14.04-.66,6.1-1.14,10.39-1.44,12.9Z" fill="url(#ad)" stroke-width="0"/><path d="M542.97,139.22c6.49,0,12.24.09,17.12.27.04,0,.12,0,.27.12.12.1.15.18.16.28.89,4.49,2.4,11.86,4.49,21.9,2.1,10.08,3.92,19.11,5.4,26.84,1.4,7.32,2.63,14.38,3.65,20.98-3.34.15-6.46.22-9.29.22-5.05,0-8.99-.09-11.71-.27-.12,0-.22-.05-.33-.14-.12-.1-.15-.18-.16-.25-.89-4.56-1.63-8.59-2.19-11.98-.08-.48-.5-.84-.99-.84h-11.14c-.5,0-.92.36-.99.85-.6,4.03-1.33,8.2-2.15,12.4-3.5.16-6.56.23-9.11.23-3.28,0-7.4-.09-12.25-.27,0,0-.02,0-.03,0,0-.13.06-.74.56-3.59,1.05-6.55,2.28-13.42,3.63-20.43,1.36-7.02,3.13-15.86,5.28-26.26,2.04-9.88,3.38-16.39,4.08-19.82,3.9-.16,9.17-.24,15.69-.24M540.27,182.73h6.76c.29,0,.57-.13.76-.35.19-.22.27-.51.23-.8-.49-3.32-1.14-8.04-1.95-14.03-.84-6.23-1.42-10.45-1.77-12.9-.07-.49-.49-.86-.99-.86,0,0,0,0,0,0-.5,0-.92.38-.98.88-.4,3.22-.92,7.81-1.59,14.05-.66,6.06-1.14,10.4-1.44,12.89-.03.28.06.57.24.78.19.21.46.34.75.34M542.97,138.22c-7.01,0-12.51.09-16.52.27-.66,3.26-2.07,10.12-4.23,20.58s-3.92,19.22-5.29,26.28-2.57,13.88-3.63,20.46c-.38,2.18-.57,3.43-.57,3.75,0,.28.09.52.27.71s.42.29.72.29c4.87.18,8.96.27,12.28.27,2.78,0,6.1-.09,9.94-.27.9-4.52,1.67-8.93,2.31-13.21h11.14c.56,3.4,1.29,7.41,2.19,12.01.06.32.22.6.5.83.27.23.58.36.92.38,2.74.18,6.67.27,11.77.27,3.18,0,6.67-.09,10.45-.27-1.06-6.97-2.34-14.34-3.83-22.12-1.49-7.78-3.29-16.73-5.41-26.86s-3.61-17.43-4.49-21.89c-.06-.34-.23-.63-.51-.86-.28-.23-.58-.34-.9-.34-4.88-.18-10.59-.27-17.12-.27h0ZM540.27,181.73c.3-2.5.78-6.8,1.44-12.9.66-6.1,1.19-10.78,1.59-14.04.36,2.52.95,6.82,1.77,12.9.82,6.08,1.47,10.76,1.95,14.04h-6.76Z" fill="url(#ae)" stroke-width="0"/><path d="M580.29,174.52c0-11.21.16-23.22.48-36.04,3.8-.18,7.11-.27,9.91-.27,2.38,0,5.84.09,10.39.27.58.02,1.02.42,1.32,1.2l12.43,30.75-.42-31.95c3.82-.18,7.33-.27,10.51-.27s6.83.09,11.11.27c.34.02.62.15.86.38.23.23.35.51.35.83.32,15.05.48,26.67.48,34.83,0,11.21-.16,23.22-.48,36.04-3.32.18-6.43.27-9.31.27-3.42,0-7.09-.09-10.99-.27-.6-.02-1.04-.42-1.32-1.2l-12.43-30.75.42,31.95c-3.8.18-7.11.27-9.91.27-3.16,0-7.07-.09-11.71-.27-.34-.02-.63-.15-.86-.38-.23-.23-.35-.5-.35-.83-.32-15.05-.48-26.67-.48-34.83Z" fill="url(#af)" stroke-width="0"/><path d="M624.91,139.22c3.1,0,6.83.09,11.05.27.11,0,.16.04.21.08.05.05.05.07.05.14.32,14.98.48,26.69.48,34.81,0,10.88-.15,22.68-.46,35.08-2.96.15-5.76.22-8.33.22-3.38,0-7.06-.09-10.96-.27-.15,0-.29-.19-.43-.58l-12.43-30.75c-.16-.38-.53-.63-.93-.63-.07,0-.13,0-.2.02-.47.09-.81.51-.8.99l.41,30.98c-3.38.15-6.37.23-8.9.23-3.12,0-7.05-.09-11.65-.27-.11,0-.16-.04-.21-.09-.05-.05-.05-.07-.05-.14-.32-14.98-.48-26.69-.48-34.81,0-10.88.15-22.67.46-35.08,3.38-.15,6.38-.23,8.93-.23,2.37,0,5.85.09,10.36.27.19,0,.36.39.43.58l12.43,30.75c.16.38.53.63.93.63.07,0,.13,0,.2-.02.47-.09.81-.51.8-.99l-.41-30.98c3.42-.15,6.61-.23,9.5-.23M624.91,138.22c-3.18,0-6.69.09-10.51.27l.42,31.95-12.43-30.75c-.3-.78-.74-1.18-1.32-1.2-4.54-.18-8.01-.27-10.39-.27-2.8,0-6.11.09-9.91.27-.32,12.81-.48,24.82-.48,36.04,0,8.17.16,19.78.48,34.83,0,.32.12.6.35.83.23.23.51.36.86.38,4.64.18,8.55.27,11.71.27,2.8,0,6.11-.09,9.91-.27l-.42-31.95,12.43,30.75c.28.78.72,1.18,1.32,1.2,3.9.18,7.57.27,10.99.27,2.88,0,5.99-.09,9.31-.27.32-12.81.48-24.82.48-36.04,0-8.17-.16-19.78-.48-34.83,0-.32-.12-.6-.35-.83-.23-.23-.52-.36-.86-.38-4.28-.18-7.99-.27-11.11-.27h0Z" fill="url(#ag)" stroke-width="0"/><path d="M637.89,43.36v18.28h-126.33l3.22-18.28h123.11ZM509.88,71.11l-3.22,18.28h131.23v-18.28h-128ZM504.99,98.85l-3.22,18.28h136.12v-18.28h-132.9Z" fill="url(#ah)" stroke-width="0"/><path d="M636.89,44.36v16.28h-124.14l2.87-16.28h121.27M636.89,72.11v16.28h-129.04l2.87-16.28h126.17M636.89,99.85v16.28h-133.93l2.87-16.28h131.06M637.89,43.36h-123.11l-3.22,18.28h126.33v-18.28h0ZM637.89,71.11h-128l-3.22,18.28h131.23v-18.28h0ZM637.89,98.85h-132.9l-3.22,18.28h136.12v-18.28h0Z" fill="url(#ai)" stroke-width="0"/><path d="M662.45,32.02v2.42h-1.92v9.67h-3.24v-9.67h-1.92v-2.42h7.08Z" fill="#000" stroke-width="0"/><path d="M673.1,32.02v12.1h-2.83v-8.17s-1.13,8.17-1.13,8.17h-2.01l-1.19-7.98v7.98h-2.83v-12.1h4.19c.12.73.25,1.58.38,2.57l.46,3.08.74-5.65h4.21Z" fill="#000" stroke-width="0"/><path d="M370.11,230.19c-.12.24-.36.42-.69.54-1.23,3.09-3.75,7.29-5.97,9.72-.96-.72-2.88-1.86-4.08-2.43,1.44-1.32,3-3.63,3.69-5.16h-18.42v-4.32h21.09l.48-.3,3.9,1.95ZM358.77,236.19c-.06.33-.36.57-.9.66-.69,6.33-3.21,13.14-9.15,16.8-.99-.81-2.76-2.22-3.99-2.88,5.49-2.91,7.89-8.73,8.19-15.18l5.85.6Z" fill="#000" stroke-width="0"/><path d="M393.78,233.61c-.12.27-.48.48-.75.63-3.51,9.84-8.1,15.63-16.11,19.65-.75-1.02-2.1-2.58-3.42-3.51,7.32-3.36,11.46-8.28,13.59-14.43h-7.89c-1.41,2.1-3.87,4.77-6.24,6.63-.87-.87-2.55-2.25-3.75-2.97,3.81-2.91,7.62-7.68,9.33-12.57l5.7,1.26c-.12.36-.54.57-1.02.6-.45.96-1.02,1.89-1.47,2.79h7.59l.66-.3,3.78,2.22Z" fill="#000" stroke-width="0"/><path d="M396.72,235.32c2.67.72,5.55,1.8,7.5,2.82l-1.98,3.93c-1.92-1.02-4.92-2.28-7.5-3.03l1.98-3.72ZM397.11,248.97c8.94-2.64,15.66-7.38,19.8-16.23.9.81,3.03,2.4,3.99,3-4.11,8.4-11.58,14.16-19.95,16.89.06.3-.09.66-.51.87l-3.33-4.53ZM400.47,227.97c2.67.81,5.49,1.89,7.59,2.97l-2.25,3.84c-2.13-1.23-4.77-2.4-7.41-3.27l2.07-3.54Z" fill="#000" stroke-width="0"/><path d="M438.72,234.9v18.66h-3.6v-1.17h-12.45v-3.33h12.45v-3.69h-11.1v-3.33h11.1v-3.81h-11.76v-3.33h15.36Z" fill="#000" stroke-width="0"/><path d="M445.8,228.93c2.97.87,6.54,2.49,8.73,3.87l-2.4,4.17c-2.13-1.41-5.7-3.06-8.49-4.08l2.16-3.96ZM444.37,248.97c9.87-3,16.74-8.85,20.16-17.07,1.35,1.08,2.94,1.95,4.29,2.7-3.72,8.16-10.83,14.58-20.64,18.15-.06.33-.27.66-.57.81l-3.24-4.59Z" fill="#000" stroke-width="0"/><path d="M491.49,230.7c-.12.27-.36.48-.63.6-1.71,3.9-3.06,6.42-5.43,9.72,2.79,2.28,6.96,6.06,9.57,8.79l-4.05,3.6c-2.16-2.67-6.21-6.84-8.46-8.79-2.91,3.15-6.51,6.48-10.17,8.76-.75-.99-2.37-2.67-3.39-3.51,7.05-3.81,12.93-10.38,15.63-16.53h-12.96v-4.35h15.57l.75-.21,3.57,1.92Z" fill="#000" stroke-width="0"/><path d="M496.69,241.59c2.13-2.16,5.94-6.54,8.01-8.85,1.11-1.2,2.25-1.74,3.36-1.74s2.34.75,3.6,1.83c3.39,2.94,9.84,9.72,13.56,14.4l-3.87,3.75c-3.3-4.71-9.75-11.88-11.79-13.89-.66-.63-1.02-.99-1.35-.99-.33.03-.69.39-1.26,1.02-.81,1.02-4.08,5.16-5.91,7.29.03.36-.09.81-.48,1.14l-3.87-3.96ZM519.27,226.83c1.77,0,3.21,1.44,3.21,3.21s-1.44,3.21-3.21,3.21-3.21-1.44-3.21-3.21,1.5-3.21,3.21-3.21ZM521.28,230.04c0-1.11-.9-2.01-2.01-2.01s-2.01.9-2.01,2.01.9,2.01,2.01,2.01c1.17,0,2.01-.96,2.01-2.01Z" fill="#000" stroke-width="0"/><path d="M528.03,237.75h25.05v4.56h-23.73c-.21.3-.63.51-1.08.57l-.24-5.13Z" fill="#000" stroke-width="0"/><path d="M577.66,230.7c-.12.27-.36.48-.63.6-1.71,3.9-3.06,6.42-5.43,9.72,2.79,2.28,6.96,6.06,9.57,8.79l-4.05,3.6c-2.16-2.67-6.21-6.84-8.46-8.79-2.91,3.15-6.51,6.48-10.17,8.76-.75-.99-2.37-2.67-3.39-3.51,7.05-3.81,12.93-10.38,15.63-16.53h-12.96v-4.35h15.57l.75-.21,3.57,1.92Z" fill="#000" stroke-width="0"/><path d="M609.66,232.92c-.12.27-.36.45-.72.57-2.37,3.48-6.75,7.92-10.59,10.89,1.5,1.2,3.72,3.06,4.92,4.38l-4.05,3.54c-3.42-3.87-8.46-7.95-12.69-10.38l3.18-3.3c1.65.87,3.45,2.07,5.04,3.15,2.7-2.07,5.34-4.8,6.87-6.75h-18.12v-4.32h21.78l.6-.33,3.78,2.55Z" fill="#000" stroke-width="0"/><path d="M614.23,228.93c2.97.87,6.54,2.49,8.73,3.87l-2.4,4.17c-2.13-1.41-5.7-3.06-8.49-4.08l2.16-3.96ZM612.79,248.97c9.87-3,16.74-8.85,20.16-17.07,1.35,1.08,2.94,1.95,4.29,2.7-3.72,8.16-10.83,14.58-20.64,18.15-.06.33-.27.66-.57.81l-3.24-4.59Z" fill="#000" stroke-width="0"/></g></svg>