<?xml version="1.0" encoding="UTF-8"?><svg id="b" xmlns="http://www.w3.org/2000/svg" viewBox="0 0 1181.23 306.1"><g id="c"><path d="M1139.96,222.19l.97-2.16c1.42-3.13,2.61-6.34,3.51-9.7,9.02-33.26-14.1-64.07-28.71-79.43l-1.57-1.64,14.77-11.86,1.34,1.42c16.93,17.9,43.71,54,32.59,94.95-1.19,4.25-2.69,8.43-4.55,12.46l-.82,1.72-17.53-5.74Z" fill="#5352a4" stroke="#454489" stroke-linecap="round" stroke-linejoin="round" stroke-width="10"/><path d="M1102.23,202.5v54.45c0,4.55-3.65,8.2-8.2,8.2h0c-4.55,0-8.2-3.65-8.2-8.2h0v-54.45" fill="#5352a4" stroke="#454489" stroke-linecap="round" stroke-linejoin="round" stroke-width="10"/><path d="M999.52,225.47c-1.86-4.03-3.36-8.2-4.55-12.46-11.11-41.02,15.66-77.12,32.59-94.95l1.34-1.42,14.77,11.86-1.57,1.64c-14.62,15.36-37.74,46.17-28.71,79.43.9,3.36,2.09,6.56,3.51,9.7l.97,2.16-17.6,5.74-.75-1.72Z" fill="#5352a4" stroke="#454489" stroke-linecap="round" stroke-linejoin="round" stroke-width="10"/><path d="M1055.68,210.7v46.24c0,4.55,3.65,8.2,8.2,8.2h0c4.55,0,8.2-3.65,8.2-8.2v-46.24c0-4.55-3.65-8.2-8.2-8.2h0c-4.55,0-8.2,3.65-8.2,8.2h0Z" fill="#5352a4" stroke="#454489" stroke-linecap="round" stroke-linejoin="round" stroke-width="10"/><path d="M1144.07,156.78c0,37.59-29.16,68.02-65.11,68.02s-65.11-30.43-65.11-68.02,29.16-58.03,65.11-58.03,65.11,20.44,65.11,58.03Z" fill="#fff" stroke="#454489" stroke-miterlimit="10" stroke-width="10"/><path d="M1008.47,192.43c12.46-1.27,25.13,8.28,25.73,21.41.52,12.23-9.7,22.52-21.41,23.42-13.13,1.04-25.51-9.99-25.13-23.12.22-11.26,9.85-20.59,20.81-21.7Z" fill="#fff" stroke="#454489" stroke-linecap="round" stroke-linejoin="round" stroke-width="10"/><path d="M1149.44,192.43c-12.46-1.27-25.13,8.28-25.73,21.41-.52,12.23,9.7,22.52,21.41,23.42,13.13,1.04,25.51-9.99,25.13-23.12-.3-11.26-9.85-20.59-20.81-21.7Z" fill="#fff" stroke="#454489" stroke-linecap="round" stroke-linejoin="round" stroke-width="10"/><path d="M1158.98,185.42c-11.64-4.48-24.76-5.22-26.85-.9-1.94,4.1,6.49,10.96,17.53,14.99,12.31,4.62,25.28,4.77,26.48.07,1.04-3.95-6.94-10.29-17.15-14.17Z" fill="#fff" stroke="#454489" stroke-linecap="round" stroke-linejoin="round" stroke-width="10"/><path d="M998.93,185.42c11.64-4.48,24.76-5.22,26.85-.9,1.94,4.03-6.49,10.96-17.45,14.99-12.31,4.62-25.28,4.77-26.55.07-1.04-3.95,6.94-10.29,17.15-14.17Z" fill="#fff" stroke="#454489" stroke-linecap="round" stroke-linejoin="round" stroke-width="10"/><path d="M1078.95,124.19v37.59" fill="none" stroke="#454489" stroke-linecap="round" stroke-miterlimit="10" stroke-width="10"/><path d="M1122.89,301.1c-3.65,0-42.21-4.03-41.25-15.66.52-6.12.3-8.65,2.16-10.59,12.83-12.83,48.26-10.89,60.64,2.31.9.97,8.73,9.55,6.12,16.18-2.98,7.83-18.2,7.76-27.67,7.76Z" fill="#5352a4" stroke="#454489" stroke-linecap="round" stroke-linejoin="round" stroke-width="10"/><circle cx="1078.95" cy="70.63" r="65.63" fill="#fff" stroke="#454489" stroke-miterlimit="10" stroke-width="10"/><circle cx="1078.95" cy="70.63" r="47.73" fill="#5352a4" stroke="#454489" stroke-miterlimit="10" stroke-width="10"/><path d="M1108.64,143.5h12.6" fill="#fff" stroke="#ff79ff" stroke-linecap="round" stroke-miterlimit="10" stroke-width="10"/><path d="M1034.95,301.1c3.65,0,42.21-4.03,41.25-15.59-.52-6.12-.3-8.73-2.16-10.59-12.83-12.83-48.26-10.96-60.64,2.31-.9.97-8.73,9.55-6.12,16.18,3.06,7.68,18.27,7.68,27.67,7.68Z" fill="#5352a4" stroke="#454489" stroke-linecap="round" stroke-linejoin="round" stroke-width="10"/><circle cx="1112.22" cy="65.49" r="4.94" fill="#fff" stroke-width="0"/><path d="M1061.05,247.18c-9.02-1.57-16.78-.15-17.38,3.13-.45,2.54,3.43,5.44,9.25,7.38-6.79-.37-11.93,1.04-12.46,3.73-.6,3.36,6.27,7.31,15.29,8.88,9.02,1.57,16.78.22,17.38-3.13.45-2.54-3.36-5.44-9.25-7.38,6.79.37,11.93-1.04,12.46-3.73.6-3.36-6.27-7.31-15.29-8.88Z" fill="#fff" stroke="#454489" stroke-linecap="round" stroke-linejoin="round" stroke-width="10"/><path d="M1083.36,37.15c3.95.6,13.72,2.76,20.14,11.11,1.19,1.49,2.16,3.13,2.98,4.85" fill="#fff" stroke="#fff" stroke-linecap="round" stroke-miterlimit="10" stroke-width="10"/><path d="M1096.86,247.18c9.02-1.57,16.78-.22,17.38,3.13.45,2.54-3.36,5.44-9.25,7.38,6.79-.45,11.93,1.04,12.46,3.73.6,3.36-6.27,7.31-15.22,8.88-8.95,1.57-16.78.15-17.38-3.21-.45-2.54,3.36-5.44,9.25-7.38-6.79.45-11.93-1.04-12.46-3.73-.67-3.28,6.19-7.23,15.22-8.8Z" fill="#fff" stroke="#454489" stroke-linecap="round" stroke-linejoin="round" stroke-width="10"/><path d="M969.21,235c1.25-2.94,1.95-6.15,1.95-9.49,0-11.99-9.62-24.31-26.28-28.37,2.52-1.88,4.93-3.94,7.19-6.18,13.34-13.21,20.68-31.34,20.68-51.06s-7.35-37.86-20.68-51.06c-13.1-12.97-30.81-20.11-49.86-20.11s-36.77,7.13-49.9,20.09c-2.7,2.66-5.14,5.53-7.34,8.57-1.6-2.09-3.31-4.09-5.17-5.97-12.78-12.94-30.33-19.79-50.74-19.79h-25.2c-19.22,0-32.15,12.88-32.23,32.07l-4.83-11.77c-.05-.12-.1-.25-.16-.37-5.77-13.22-19.75-21.44-36.49-21.44s-30.56,8.12-36.5,21.18c-.1.22-.19.43-.28.65l-4.94,12.09v-5.47c0-16.37-13.53-28.71-31.48-28.71-11.76,0-21.63,5.3-27.03,13.56-6.2-8.46-16.3-13.44-27.53-13.44-19.42,0-34.71,14.47-35.35,33.16l-4.6-11.22c-.05-.12-.1-.25-.16-.37-5.77-13.22-19.75-21.44-36.49-21.44s-30.56,8.12-36.5,21.18c-.1.22-.19.43-.28.65l-4.82,11.78v-5.54c0-16.08-13.64-28.2-31.73-28.2-14.12,0-25.53,7.39-29.86,18.28-4.31-10.89-15.68-18.28-29.74-18.28-8.74,0-16.43,2.86-22.03,7.63-5.59-4.85-13.24-7.75-21.93-7.75-11.76,0-21.63,5.3-27.03,13.56-6.2-8.46-16.3-13.44-27.53-13.44-19.42,0-34.71,14.47-35.35,33.15l-4.6-11.22c-.05-.13-.11-.25-.16-.38-5.77-13.22-19.75-21.43-36.49-21.43s-30.56,8.11-36.5,21.18c-.1.22-.19.44-.28.66l-6.57,16.07c-3.02-6.15-6.96-11.75-11.75-16.6-12.78-12.94-30.33-19.79-50.74-19.79h-25.2c-19.28,0-32.23,12.95-32.23,32.23v72.08c0,9.41,3.09,17.31,8.5,22.94-7.69,4.14-12.94,12.26-12.94,21.59,0,1.58.16,3.13.44,4.63-3.4,4.21-5.44,9.56-5.44,15.37,0,1.58.16,3.13.44,4.63-3.4,4.21-5.44,9.56-5.44,15.37,0,13.51,10.99,24.5,24.5,24.5h271.5c9.69,0,18.07-5.65,22.05-13.83,7.86,9.48,19.77,15.1,34.04,15.1,7.5,0,14-1.54,19.47-4.06,3.77,2.13,8.2,3.35,12.98,3.35,5.92,0,11.31-1.86,15.56-5.03,4.34,3.39,9.54,5.15,15.35,5.15,3.9,0,7.6-.82,10.93-2.27,2.73.89,5.72,1.37,8.92,1.37h27.26c1.74,0,3.44-.18,5.07-.52,2.66.91,5.52,1.41,8.5,1.41,7.6,0,14.55-3.35,19.17-8.92,4.58,5.49,11.48,8.79,19.03,8.79,4.58,0,8.88-1.17,12.61-3.2,3.72,1.96,8.06,3.07,12.74,3.07,6.05,0,11.54-1.87,15.84-5.04,4.34,3.28,9.93,5.23,16.09,5.23s12.22-2.12,16.64-5.66c4.69,3.6,10.5,5.66,16.7,5.66s12.27-2.14,16.98-5.88c4.25,3.22,9.72,5.05,15.98,5.05h27.26c9.42,0,17.44-5.17,21.56-12.93,4.92,8.31,14,13.51,24.65,13.51,4.85,0,9.41-1.1,13.39-3.07,3.96,1.93,8.48,3,13.29,3,7.63,0,14.56-2.77,19.68-7.43,7.37,5.29,16.46,8.39,26.4,8.39,8.51,0,16.4-2.28,23.12-6.26,4.35,3.48,10,5.56,16.24,5.56,5.92,0,11.31-1.86,15.56-5.03,4.34,3.39,9.54,5.15,15.35,5.15,3.49,0,6.83-.66,9.88-1.84,2.89,1.06,6.05,1.65,9.39,1.65,5.62,0,10.76-1.66,14.89-4.49,3.98,2.81,8.75,4.36,13.65,4.36,4.07,0,7.96-1.04,11.41-2.87,5.24,2.34,11.49,3.77,18.79,3.77,27.79,0,40.45-18.05,40.45-34.82,0-6.11-1.26-11.63-3.68-16.43Z" fill="#454489" stroke-width="0"/><path d="M306,226.47H34.5c-3.31,0-6-2.69-6-6s2.69-6,6-6h271.5c3.31,0,6,2.69,6,6s-2.69,6-6,6Z" fill="#fff" stroke-width="0"/><path d="M301,246.47H29.5c-3.31,0-6-2.69-6-6s2.69-6,6-6h271.5c3.31,0,6,2.69,6,6s-2.69,6-6,6Z" fill="#fff" stroke-width="0"/><path d="M296,266.47H24.5c-3.31,0-6-2.69-6-6s2.69-6,6-6h271.5c3.31,0,6,2.69,6,6s-2.69,6-6,6Z" fill="#fff" stroke-width="0"/><path d="M352.09,267.75c-16.19,0-25.79-11.07-25.79-27.07,0-14.97,9.79-26.43,25.79-26.43,13.89,0,20.54,8.77,20.54,12.74,0,3.33-3.52,6.33-7.04,6.33-1.79,0-3.65-.77-4.99-2.75-1.92-2.82-4.86-3.46-8.51-3.46-7.23,0-12.54,6.02-12.54,13.57,0,8,4.35,14.02,12.54,14.02,3.84,0,8.51-1.86,9.79-4.48,1.02-2.18,3.01-3.07,5.06-3.07,3.46,0,7.17,2.62,7.17,6.21,0,3.26-5.25,14.4-22.01,14.4Z" fill="#fff" stroke-width="0"/><path d="M391.19,248.1v13.38c0,3.71-3.33,5.57-6.66,5.57s-6.66-1.86-6.66-5.57v-38.78c0-4.67,2.3-6.98,6.97-6.98h17.47c12.93,0,19.58,6.08,19.58,16.25,0,5.63-2.94,9.41-6.85,12.22.26.51.77,1.02,1.02,1.66,1.6,4.1,3.01,7.36,5.76,10.94.96,1.34,1.41,2.62,1.41,3.84,0,3.71-3.97,6.53-7.81,6.53-4.61,0-6.53-2.62-12.35-17.02-.45-1.09-1.41-2.05-2.3-2.05h-9.6ZM391.19,228.39v7.74h12.22c3.2,0,5.25-2.05,5.25-4.16s-2.3-3.58-5.95-3.58h-11.52Z" fill="#fff" stroke-width="0"/><path d="M435.29,266.28c-4.67,0-6.98-2.3-6.98-6.98v-36.61c0-4.67,2.3-6.98,6.98-6.98h27.07c4.03,0,6.02,3.2,6.02,6.46s-1.98,6.53-5.95,6.53h-20.8v5.44h17.34c3.97,0,5.89,3.07,5.89,6.14s-1.98,6.27-5.82,6.27h-17.41v6.66h20.93c4.03,0,6.02,3.26,6.02,6.53s-1.98,6.53-6.02,6.53h-27.26Z" fill="#fff" stroke-width="0"/><path d="M505.56,255.72h-20.54l-3.01,7.62c-1.09,2.69-3.46,3.84-5.89,3.84-3.46,0-6.98-2.37-6.98-6.08,0-.83.13-1.73.58-2.69l15.61-38.21c1.6-3.52,5.82-5.25,9.98-5.25s8.38,1.73,9.92,5.25l15.68,38.21c.38.9.51,1.73.51,2.56,0,3.71-3.65,6.08-7.1,6.08-2.43,0-4.74-1.15-5.76-3.71l-3.01-7.62ZM495.25,229.41l-5.38,13.95h10.88l-5.5-13.95Z" fill="#fff" stroke-width="0"/><path d="M532.89,229.03h-9.54c-3.39,0-5.12-3.33-5.12-6.66s1.73-6.66,5.12-6.66h32.45c3.46,0,5.18,3.33,5.18,6.66s-1.73,6.66-5.18,6.66h-9.41v33.15c0,3.14-3.39,4.74-6.72,4.74s-6.78-1.6-6.78-4.74v-33.15Z" fill="#fff" stroke-width="0"/><path d="M564.82,220.07c0-3.39,3.39-5.12,6.78-5.12s6.78,1.73,6.78,5.12v42.11c0,3.26-3.39,4.93-6.78,4.93s-6.78-1.66-6.78-4.93v-42.11Z" fill="#fff" stroke-width="0"/><path d="M581.53,223.14c-.32-.83-.51-1.66-.51-2.43,0-3.65,3.71-5.82,7.3-5.82,2.5,0,4.93,1.15,5.82,3.65l10.62,27.26,10.75-27.26c1.02-2.5,3.46-3.65,5.95-3.65,3.46,0,7.04,2.11,7.04,5.7,0,.77-.19,1.66-.58,2.56l-14.66,38.14c-1.47,3.9-4.93,5.82-8.32,5.82s-6.91-1.98-8.45-5.82l-14.98-38.14Z" fill="#fff" stroke-width="0"/><path d="M637.91,266.28c-4.67,0-6.97-2.3-6.97-6.98v-36.61c0-4.67,2.3-6.98,6.97-6.98h27.07c4.03,0,6.02,3.2,6.02,6.46s-1.98,6.53-5.95,6.53h-20.8v5.44h17.34c3.97,0,5.89,3.07,5.89,6.14s-1.98,6.27-5.82,6.27h-17.41v6.66h20.93c4.03,0,6.02,3.26,6.02,6.53s-1.98,6.53-6.02,6.53h-27.26Z" fill="#fff" stroke-width="0"/><path d="M724.75,233.7l-3.65,26.05c-.64,4.67-5.18,7.1-9.73,7.1s-8.7-2.24-9.79-7.1l-8-36.93c-.13-.51-.13-1.02-.13-1.47,0-4.1,3.71-6.4,7.23-6.4,2.82,0,5.5,1.47,6.08,4.74l5.12,29.69,3.46-26.62c.58-4.16,4.93-6.21,9.28-6.21s8.64,1.98,9.28,5.95l4.29,26.75,4.42-29.57c.51-3.33,3.14-4.8,5.95-4.8,3.58,0,7.3,2.37,7.3,6.46,0,.45,0,.96-.13,1.47l-7.87,36.93c-1.02,4.8-5.38,7.04-9.79,7.04s-9.15-2.5-9.79-7.04l-3.52-26.05Z" fill="#fff" stroke-width="0"/><path d="M757.65,241c0-15.68,11.84-26.75,26.49-26.75s26.43,11.07,26.43,26.75-11.78,26.75-26.43,26.75-26.49-11.07-26.49-26.75ZM797.26,241c0-7.49-6.21-13.7-13.12-13.7s-13.18,6.21-13.18,13.7,6.21,13.7,13.18,13.7,13.12-6.27,13.12-13.7Z" fill="#fff" stroke-width="0"/><path d="M830.16,248.1v13.38c0,3.71-3.33,5.57-6.66,5.57s-6.66-1.86-6.66-5.57v-38.78c0-4.67,2.3-6.98,6.98-6.98h17.47c12.93,0,19.58,6.08,19.58,16.25,0,5.63-2.94,9.41-6.85,12.22.26.51.77,1.02,1.02,1.66,1.6,4.1,3.01,7.36,5.76,10.94.96,1.34,1.41,2.62,1.41,3.84,0,3.71-3.97,6.53-7.81,6.53-4.61,0-6.53-2.62-12.35-17.02-.45-1.09-1.41-2.05-2.3-2.05h-9.6ZM830.16,228.39v7.74h12.22c3.2,0,5.25-2.05,5.25-4.16s-2.3-3.58-5.95-3.58h-11.52Z" fill="#fff" stroke-width="0"/><path d="M880.15,245.67v16.45c0,3.2-3.26,4.86-6.46,4.86s-6.53-1.66-6.53-4.86v-42.24c0-3.26,3.26-4.93,6.53-4.93s6.46,1.66,6.46,4.93v11.78l16.9-15.17c1.15-.96,2.37-1.41,3.58-1.41,3.39,0,6.59,3.26,6.59,6.78,0,1.73-.7,3.52-2.5,5.06l-13.57,11.78,16.13,16.13c1.34,1.34,1.92,2.88,1.92,4.48,0,3.84-3.46,7.55-6.98,7.55-1.34,0-2.75-.51-3.9-1.79l-18.17-19.39Z" fill="#fff" stroke-width="0"/><path d="M911.76,230.57c0-8.38,6.85-16.32,21.12-16.32s19.77,7.74,19.77,11.26-3.33,6.66-6.91,6.66c-1.79,0-3.58-.77-5.06-2.62-1.92-2.43-6.02-3.26-7.94-3.26-4.8,0-7.17,1.28-7.17,3.46,0,.77.45,1.66,1.22,1.92,3.52,1.28,7.49,1.47,13.38,3.01,9.28,2.43,14.21,7.36,14.21,16.77s-7.74,16.32-21.95,16.32c-16.45,0-21.37-10.56-21.37-14.53,0-3.71,3.65-6.91,7.1-6.91,1.92,0,3.71.96,4.8,3.33,1.66,3.58,4.61,5.44,9.73,5.44s7.81-1.86,7.81-4.16c0-1.79-1.66-3.52-3.52-3.97-5.76-1.54-11.65-1.47-17.28-3.65-6.08-2.5-7.94-7.81-7.94-12.73Z" fill="#fff" stroke-width="0"/><path d="M46.68,189.68c-9.2,0-13.73-4.54-13.73-13.73v-72.08c0-9.2,4.54-13.73,13.73-13.73h25.2c32.01,0,51.16,21.55,51.16,49.65,0,30.62-17.77,49.9-49.65,49.9h-26.71ZM73.26,163.97c15.5,0,23.69-10.21,23.69-24.19,0-14.74-10.71-24.07-24.57-24.07h-13.23v48.26h14.11Z" fill="#fff" stroke-width="0"/><path d="M197.88,168.89h-40.45l-5.92,15c-2.14,5.29-6.8,7.56-11.59,7.56-6.8,0-13.73-4.66-13.73-11.97,0-1.64.25-3.4,1.13-5.29l30.75-75.23c3.15-6.93,11.47-10.33,19.66-10.33s16.51,3.4,19.53,10.33l30.87,75.23c.76,1.76,1.01,3.4,1.01,5.04,0,7.31-7.18,11.97-13.99,11.97-4.79,0-9.32-2.27-11.34-7.31l-5.92-15ZM177.59,117.1l-10.58,27.47h21.42l-10.84-27.47Z" fill="#fff" stroke-width="0"/><path d="M263.39,136.13l.13,44.98c0,6.43-6.55,9.7-12.98,9.7s-13.1-3.28-13.1-9.7v-76.74c0-10.46,8.57-15.88,16.88-15.88,5.29,0,10.46,2.27,13.23,6.8l28.35,47.88v-44.61c0-6.8,6.55-10.21,12.98-10.21s12.98,3.4,12.98,10.21v77.24c0,10.08-8.57,14.87-16.76,14.87-5.54,0-10.84-2.14-13.36-6.43l-28.35-48.13Z" fill="#fff" stroke-width="0"/><path d="M399.22,150.87h-33.27v30.75c0,6.43-6.55,9.7-13.11,9.7s-13.1-3.28-13.1-9.7v-83.42c0-6.43,6.55-9.7,13.1-9.7s13.11,3.28,13.11,9.7v26.97h33.27v-26.97c0-6.43,6.68-9.7,13.23-9.7s13.23,3.28,13.23,9.7v83.42c0,6.43-6.55,9.7-13.23,9.7s-13.23-3.28-13.23-9.7v-30.75Z" fill="#fff" stroke-width="0"/><path d="M505.94,168.89h-40.45l-5.92,15c-2.14,5.29-6.8,7.56-11.59,7.56-6.8,0-13.73-4.66-13.73-11.97,0-1.64.25-3.4,1.13-5.29l30.75-75.23c3.15-6.93,11.47-10.33,19.66-10.33s16.51,3.4,19.53,10.33l30.87,75.23c.76,1.76,1.01,3.4,1.01,5.04,0,7.31-7.18,11.97-13.99,11.97-4.79,0-9.32-2.27-11.34-7.31l-5.92-15ZM485.66,117.1l-10.58,27.47h21.42l-10.84-27.47Z" fill="#fff" stroke-width="0"/><path d="M571.46,136.13l.13,44.98c0,6.43-6.55,9.7-12.98,9.7s-13.1-3.28-13.1-9.7v-76.74c0-10.46,8.57-15.88,16.88-15.88,5.29,0,10.46,2.27,13.23,6.8l28.35,47.88v-44.61c0-6.8,6.55-10.21,12.98-10.21s12.98,3.4,12.98,10.21v77.24c0,10.08-8.57,14.87-16.76,14.87-5.54,0-10.84-2.14-13.36-6.43l-28.35-48.13Z" fill="#fff" stroke-width="0"/><path d="M710.31,168.89h-40.45l-5.92,15c-2.14,5.29-6.8,7.56-11.59,7.56-6.8,0-13.73-4.66-13.73-11.97,0-1.64.25-3.4,1.13-5.29l30.75-75.23c3.15-6.93,11.47-10.33,19.66-10.33s16.51,3.4,19.53,10.33l30.87,75.23c.76,1.76,1.01,3.4,1.01,5.04,0,7.31-7.18,11.97-13.99,11.97-4.79,0-9.33-2.27-11.34-7.31l-5.92-15ZM690.03,117.1l-10.58,27.47h21.42l-10.84-27.47Z" fill="#fff" stroke-width="0"/><path d="M763.86,189.68c-9.2,0-13.73-4.54-13.73-13.73v-72.08c0-9.2,4.54-13.73,13.73-13.73h25.2c32.01,0,51.16,21.55,51.16,49.65,0,30.62-17.77,49.9-49.65,49.9h-26.71ZM790.45,163.97c15.5,0,23.69-10.21,23.69-24.19,0-14.74-10.71-24.07-24.57-24.07h-13.23v48.26h14.11Z" fill="#fff" stroke-width="0"/><path d="M850.04,139.91c0-30.87,23.31-52.67,52.17-52.67s52.04,21.8,52.04,52.67-23.19,52.67-52.04,52.67-52.17-21.8-52.17-52.67ZM928.04,139.91c0-14.74-12.22-26.97-25.83-26.97s-25.96,12.22-25.96,26.97,12.22,26.96,25.96,26.96,25.83-12.35,25.83-26.96Z" fill="#fff" stroke-width="0"/></g></svg>