<?xml version="1.0" encoding="UTF-8"?><svg id="a" xmlns="http://www.w3.org/2000/svg" xmlns:xlink="http://www.w3.org/1999/xlink" viewBox="0 0 988.51 196.9"><defs><linearGradient id="b" x1="248.77" y1="659.3" x2="248.77" y2="801" gradientTransform="translate(0 -644)" gradientUnits="userSpaceOnUse"><stop offset="0" stop-color="#f95aa4"/><stop offset=".39" stop-color="#ffb4f1"/><stop offset=".52" stop-color="#ff9fdf"/><stop offset="1" stop-color="#f95aa4"/></linearGradient><linearGradient id="c" x1="746.39" y1="-1267.01" x2="746.39" y2="-1100.11" gradientTransform="translate(0 -1090.11) scale(1 -1)" gradientUnits="userSpaceOnUse"><stop offset=".11" stop-color="#00c13a"/><stop offset=".56" stop-color="#00ff24"/></linearGradient></defs><path d="M502.7,125.4l-1.5-7c-1.6-7.6-8.2-13.1-16-13.4v-.7c0-1.6-.1-3.3-.4-4.9,1-2.4,1.6-5,1.6-7.6,0-12.3-11.9-26.1-29-26.1h-.8c-12.9.3-31.3,6.3-47.8,15.5-1.5.8-3,1.7-4.5,2.6-.6-3.2-1.6-6.3-3.2-9.1-3.5-6.2-10-10-17.1-9.9-7,0-13.3,3.4-25,13.4-.3-.4-.6-.7-.9-1.1-4.3-4.9-10.6-7.4-18.7-7.4-1.8,0-3.4.1-4.6.2h-.7c-1,0-2.2,0-3.6.1-.3-1.3-.8-2.5-1.5-3.6-.6-1.1-1.4-2.2-2.3-3.1.1-.6.1-1.2.1-1.8,0-10.2-7.9-20.6-23.1-20.6s-24.7,9.7-30.2,17.3c-7.5.8-13.8,2.5-19.5,6.3-3.9,2.6-7.3,5.9-10,9.7-3.9-4.1-9.2-6.1-16-6.1-4.5.1-9,.6-13.5,1.3-3.73-4.02-8.84-6.27-14.26-6.46-2.32-10.36-11.61-18.12-22.64-18.04-1.57,0-3.17.14-4.76.4.15-3.8-.36-6.83-1.14-9.4-2-6.8-7.1-12.2-13.8-14.5-2.1-.7-4.2-1.1-6.4-1.1-5.7,0-11.2,2.3-16.7,7-1.2-2.8-2.7-5.4-4.4-7.9-6-8.8-14.1-13.7-22.8-13.6h-.7c-8.9.3-25.2,6.3-48.5,17.8-7.8,3.8-33.9,17-43.2,25.6C5.5,58,0,71.5,0,86c0,18.7,10.6,27.1,21.2,27.1,4.7,0,8.4-1.6,13.4-3.9,2.6-1.1,5.6-2.5,9-3.8-6,14.1-7.4,22.2-7.5,28.4-.3,11.2,4.3,22.3,13,31.2,7.7,7.9,17,12.4,25.4,12.4,11.98,0,22.8-8.8,35.72-24.5.74,1.67,1.55,3.32,2.48,4.9,6.1,10.1,15.9,15.9,26.9,15.9,15.9,0,32.1-11.4,40.8-20.3,1.1,2.6,2.6,5,4.4,7.2,5.5,6.9,13.9,10.9,22.7,10.9,4.5,0,11.8-1,24.8-8.6,1,1.7,2.2,3.3,3.5,4.7,5.5,5.9,13.2,9.1,21.2,9,12.4,0,24.6-6.4,36.4-15.2,5.4,5.6,12.8,8.8,20.6,8.7,5.9-.1,11.6-1.9,16.5-5l.4.4c5.2,6.3,13.1,10,21.3,9.9,10.9,0,21.5-5.8,31.7-13.8,5.4,5.3,12,9.1,19.2,9.1,5.6,0,11.1-2.3,18.1-7,4.5,7.3,12.4,11.9,22,11.9,5.6,0,14.2-1.7,31.9-14.6,9.3-6.8,18.7-15,23.8-20.8,3.6-4,5-9.5,3.8-14.8Z" fill="#fff" stroke-width="0"/><path d="M494.8,124.7l-1.5-7c-1.3-5.9-7.2-9.7-13.1-8.4-1.4.3-2.6.8-3.8,1.6-.9.6-1.8,1.2-2.7,1.9,2.1-3.4,3.5-6.7,3.5-10.4,0-2-.2-3.9-.8-5.8,1.3-2,1.9-4.4,1.9-6.8,0-8.2-8.2-20.1-23-20.1h-.6c-12.1.3-29.3,6-45.1,14.7-4.3,2.4-8.5,5.1-12.5,8,.1-1,.1-2.1,0-3.1-.5-6.3-1.5-10.5-3.4-13.6-2.4-4.3-7-7-12-7-4.6,0-9.4,1.9-21.2,12-2.1,1.8-4.1,3.6-5.9,5.3-.4-2.6-1.5-5-3.3-7-4.7-5.4-11.8-5.4-14.2-5.4-1.6,0-3.1.1-4.1.2-.4,0-.7.1-1,.1-3.2-.1-6.4.4-9.4,1.3,1-4.5-.8-9.2-4.7-11.7.4-1.3.6-2.7.6-4.1,0-7-5.4-14.6-17.1-14.6l.3-.3c-14.5,0-21.9,9.9-26.9,17-8,.6-14,2-19.5,5.6s-8.8,8.4-13.2,15.3c-1.1-2-2.3-3.8-3.7-5.6l-.2-.2c-4.1-4.9-10.2-4.9-12.3-4.9-3.9,0-9.1.7-16.1,1.8-2.6-4.3-7.3-7-12.4-6.9-1.54,0-3.13.3-4.72.8.06-.66.11-1.33.12-2,0-9.3-7.6-16.9-16.9-16.9-.1-.1-.2-.1-.3-.1-4.26.13-8.36,1.19-12.1,3.06,1.72-6.45,1.9-11.75.6-16.16-1.4-4.9-5.1-8.9-10-10.6-1.4-.5-2.9-.8-4.4-.8-6,0-12,3.7-18.4,11.4-.4.5-1.2,1.5-2.1,2.7.2-1,.3-1.9.3-2.9,0-6-4.8-13.3-5.8-14.6-6.5-9.3-13.4-11.3-18.1-11.2h-.5c-10,.4-30.6,9.6-46.2,17.3-5.4,2.7-32.8,16.3-41.8,24.6-8.3,7.6-13.1,19.4-13.1,32.3,0,2.9.4,5.9,1.1,8.7,3,11.5,11.5,12.3,14.1,12.3,3.4,0,6.3-1.3,11-3.3,7.2-3.4,14.7-6,22.4-7.7-10.2,21-12.3,31.1-12.5,38-.3,9.6,3.8,19.1,11.3,26.9,6.4,6.7,14.3,10.6,21.1,10.6,11.68,0,22.91-11.36,37.96-31.05.76,5.12,2.48,10.1,5.14,14.55,5.1,8.4,12.8,13,21.8,13,13.4,0,29.6-10.4,38.2-20.3,2-2,3.9-4,5.8-6,.3,5.6,2.3,11,5.9,15.4,4.3,5.5,11,8.7,18,8.7,2.5,0,10.2,0,27.6-11.4,2.6,9.9,11.7,16.8,22,16.5,12.3,0,25-7.6,37.3-17.5,4.4,6.5,11.2,11,19.7,11,6.6,0,12.7-3.1,18.3-7.4,3.5,7.8,11.3,12.8,19.9,12.8,10.7,0,21.9-7.2,32.4-16.1,5,6.3,11.7,11.4,18.5,11.4,5.1,0,10.6-2.7,20.7-10.2,2,9,10.1,15.4,19.4,15.2,4.3,0,11.9-1.4,28.4-13.4,8.9-6.5,18-14.5,22.8-19.9,2.3-2.6,3.2-6.2,2.5-9.6ZM117.8,64.8c-11.4,18.1-20.1,30.9-26.7,40,5.6-10.3,14.2-25.3,27.8-47-.6,2.3-1,4.6-1.1,7ZM290,113.2l-2.7,1.9c-3.6,2.6-7.2,5.2-10.2,7.3,2.5-5.3,5.6-10.4,9.1-15.2,2.2,0,4.4-.2,6.6-.5-1,2.1-2,4.3-2.8,6.5Z" fill="#000" stroke-width="0"/><path d="M71.6,157c-4.3,0-10-3-14.7-7.9-5.8-5.9-9-13.3-8.8-20.4.2-9,4.7-26.2,36.7-79.7-13.7,6.6-27.4,13.6-39.5,23.1l5.6-.3h.9c.7,0,1.5-.1,2.4-.1,5.5,0,6.3,2.5,6.3,4.1,0,4.1-5.8,5-8.8,5.6l-1,.2c-8.7,1.8-17.2,4.6-25.2,8.4-3.6,1.6-5.8,2.6-7.3,2.6-6,0-6.2-10.8-6.2-12.1,0-10.4,3.8-19.8,10.3-25.8,9.9-9.1,67.7-38.8,82.2-39.4,8.4,0,14.8,13.4,14.8,16.8,0,3.7-3.4,9.2-6.9,14.5l-.7,1c-34.5,55-40.2,71-40.5,75.6-.3,3.5.4,7.5,1.6,8.8.2.3.4.3.4.3.1,0,.2,0,.3-.1,3.8-1.3,11.9-4,52.3-67.9-.9-7.9,4.9-18.7,11.2-26.2,2.6-3,7.5-8.2,11.6-8.2.5,0,1,.1,1.5.3,2.1.7,3.8,2.5,4.3,4.7,3.7,12.1-13.1,43.5-47.3,88.3l-2,2.7c-12,16.1-24.5,31.1-33.5,31.1ZM254,156.2c-8.4,0-14-5.9-14-14.7.1-3.9.7-7.7,1.9-11.4-10.6,8.9-28.2,21.1-37.5,21.1s-14.9-8.4-14.9-16.6c0-11.7,7.5-21,14.5-29.3l-13.4,3.3c-3.5,5.4-7.4,10.6-11.6,15.6-3.4,4-7,7.9-10.8,11.8-7.2,8.4-21.3,17.4-31.6,17.4-11.9,0-18.3-12.7-18.3-24.6,0-10.7,5-22.7,13.8-32.9,7.8-9,17-14.9,23.4-14.9,5.2,0,10.4,2.3,10.4,7.3,0,10.6-19.3,27.6-27,33.1-.5,3-.1,5.2,1,6.6,1.1,1.4,3.7,2.3,7.3,2.3,4.3,0,9.9-2.7,17.3-8.1,3.4-2.8,6.4-7.2,9.2-11.6l1-1.5c-2.7-1.1-3.8-3.3-3.8-7.2,0-14.8,20.3-29.4,25.9-29.4,2.9,0,5.3,2.4,5.4,5.3,0,1-.1,2-.4,2.9l7.4-1.1c7.3-1.1,12.6-1.9,16.1-1.9,1.8,0,4.1.2,5.3,1.7,3,3.9,4.6,7.3,5,11.1v.2c0,6.7-4.1,10.1-8.4,13.7l-.3.2c-8.8,7.6-14.1,15.1-14.1,20.1,0,1.9,2.1,3.3,3.9,3.3,4.7,0,10.4-2.4,18-7.6l.1-.1.2-.1.4-.3c11.3-8.8,19.2-17,24.9-25.5-1.7,0-2.9-.1-3.9-.1-.8,0-1.5-.1-2.1-.1-2.8.1-5.5.4-8.2.9h-.3c-1.1,0-2-.9-2-2,0-.4.1-.7.3-1l2.2-3.4,1.1-1.7c9.5-15.1,11.9-18.9,31.7-19.8.6-.9,1.3-1.8,1.9-2.7,4.7-6.9,9.6-14,20-14,5.1,0,8.1,2.1,8.1,5.6,0,2.9-2.5,6.6-5.6,10.7l8.1.7c.7,0,1.3.4,1.6,1,.3.6.3,1.3,0,1.9-.7,1.5-1.4,2.8-2,4.1-6.8,13.9-10.1,20.9-26.5,20.9-1.1,0-2.4,0-3.6-.1-10.5,13.7-16.2,25.5-16.2,33.3,0,3.9,1.2,4.6,3.7,4.6,4.5,0,10.4-4.3,23.4-13.6l5-3.6c4.7-15.3,16.3-28.3,25.2-34,3.2-2.3,6.2-2.4,9.5-2.4.5,0,1,0,1.5-.1,1.2-.1,2.3-.2,3.5-.2,2.3,0,5.6.2,7.4,2.3,1,1.2,1.4,2.7,1.1,4.2-.3,2.6-3,6.4-7.9,11.4l-.1.1c-5.9,6.7-7.3,8.3-14.9,13.7-6.2,4.4-9.6,8.1-9.6,14.7,0,.3,0,.5.1.8,3.2-.6,12.2-5.5,21-13l18.7-16.8c1.1-1.1,22.4-22.2,28.7-22.2,3.9,0,5.7,3.4,6.4,12.3.5,5.4-5,10.2-8.3,13.1l-.2.2c-6.6,6-18.9,20.2-18.9,27.6,0,1.4.2,2.2,2.8,2.2,1.9,0,7.1-1.4,19.9-11.1,7.8-22.9,51.8-42.7,71.5-43.2h.4c9.8,0,14,8,14,11.1,0,2.2-1.9,3.8-4.2,5.1,2.1,1.9,3.3,4.7,3.1,7.5,0,3.4-3.5,7.8-7.5,12.9-4.2,5.3-9,11.3-9,15.4,0,2.3,2.7,2.6,3.9,2.6,5.5,0,13.2-5.6,19.9-10.6,2.1-1.5,4.1-3,6-4.3.3-.2.7-.3,1.1-.3.2,0,.5,0,.7.1.6.2,1.1.8,1.2,1.4l1.5,7c.1.6,0,1.3-.5,1.7-7.9,9-34.1,30.3-44.5,30.3-6.8,0-11.1-4.7-11.1-12.1,0-3.6,1.4-8.8,4.3-15.5l-11.8,9.5-.8.6c-8.2,6.5-16.4,12.6-20.6,12.6-5.1,0-13-7.9-16.6-16.2-10.7,10.2-23.8,21-34.3,21-7.7,0-13.2-6.1-13.2-14.6.1-3.3.6-6.5,1.6-9.6l-1.1,1.2c-7.5,7.8-16.8,17.6-25.4,17.6s-14.8-8.2-16.1-17c-14.4,12.3-28.8,23.3-41.4,23.2h0ZM399.2,130.5c.3,1.3.8,2.1,1.2,2.1h.2l.6-.1c3.2-.6,9.7-1.7,40.6-32.5-37,12.2-42.5,22.2-42.6,30.5ZM165.6,81.2c-5.5,0-9.6-4.4-9.6-10.2,0-9,10.2-16.6,18.5-16.6,4.4-.1,8.1,3.3,8.3,7.7v.2c0,8.6-7.7,18.9-17.2,18.9Z" fill="url(#b)" stroke-width="0"/><path d="M987.9,88.5l-1.8-6.5c-2.6-9-12-14.3-21-11.7-2.2.6-4.2,1.7-6,3.1l-3,2.5c-2.9,2.3-7.1,5.8-12.1,9.8-1.3-12.2-11-23.6-30.8-23.6h-.3c-12.5,0-25.6,4.5-37.3,12.7l2.3-3.6c7.2-10.6,11-20.1,11-28.2-.1-13.3-10.5-24.3-23.3-24.3-18.9,0-31.9,20.5-45.1,46.5h-1.5c-11.3.7-26.5,6.4-39.9,15-3.6,2.3-7,4.8-10.2,7.5-1.1-12-12.8-24.6-29.1-24.6h-.8c-14.1.4-29.9,6.8-38,10.6-12.98,6.05-24.53,13.67-33.05,21.76-2.05-.87-4.3-1.36-6.65-1.36-1.4,0-2.8.2-4.2.5,12.3-13.4,31-37.7,29.9-59.8-.6-13.3-6.5-21.3-11.2-25.7-6.5-5.9-15.3-9.1-25.5-9.1-13.8,0-30.7,6.7-51.8,20.5-14.2,9.4-27.6,20-40,31.7-14.7,14.1-48.9,51.3-48.9,91.4,0,31.4,22.2,53.3,53.9,53.3,12.96,0,47.07-4.72,92.9-47.12,1.54,2.7,3.13,4.96,4.4,6.62,5.1,6.5,13.3,14.3,23.8,14.3,5.7,0,11.4-2.4,18.4-7.3,4.7,7.8,13.2,12.6,22.3,12.4,5.2,0,13.3-1.5,29.4-12.9,1.7-1.2,3.5-2.5,5.2-3.9,7,8.3,14.8,9.6,19.3,9.6,6.7,0,13.3-3,20.3-7.9,4.7,7.5,13,12,21.9,12,9.4,0,19.8-4.4,31.3-13.2,6.8,9.2,17.6,14.5,29,14.4,7.8,0,16.8-3.2,29-10.3,10.1-6,19.7-12.6,29-19.8,18.2-13.9,37.4-30.9,44.8-39.7,3.6-4.3,4.9-10.2,3.4-15.6ZM599.5,133.2h.2c1.2-.2,2.4-.4,3.5-.7-11.1,6.4-21,10.4-27.2,10.4-.9.1-1.8,0-2.7-.2-.6-1.6-.8-3.3-.7-5,.2-4.6,1.2-9.2,2.9-13.5,5,6,12.4,9.4,20.2,9.3,1.3,0,2.5-.1,3.8-.3Z" fill="#fff" stroke-width="0"/><path d="M980.1,88.8l-1.8-6.5c-1-3.6-3.7-6.4-7.3-7.5-1.1-.3-2.2-.5-3.3-.5-2.5,0-4.9.9-6.9,2.4l-3,2.5c-5.1,4.1-14.1,11.5-24.1,19.2,1.6-3.6,2.4-7.4,2.4-11.3.2-7.4-4-14.2-10.6-17.5-4.5-2.1-9.4-3.1-14.3-3h-.3c-12.6,0-25.9,5.1-37.6,14.3-9.9,7.7-17.6,18-22.2,29.7-1.2.9-2.5,1.9-3.9,3-2.1,1.6-5.4,4.3-8.8,6.7,2-6.3,6.4-13.1,10.3-19.2.9-1.3,1.7-2.6,2.5-3.9l19.6-30.9c6.7-9.7,10.1-18.1,10.1-25-.1-9.9-7.8-18.2-17.3-18.2-16.4,0-28.6,21-41.6,46.8-1.2-.2-2.4-.4-3.6-.4h-1c-10.1.6-24.7,6.1-37,14.1-6.9,4.5-14.9,10.8-20.6,18.8,0-.5.1-1,.1-1.4,0-2-.3-4-.8-6,1.3-2.1,2-4.5,2-7,0-8.4-8.3-20.5-23.2-20.5h-.6c-18.6.5-51.9,14.4-70,33.5-.2.21-.39.42-.58.64-2.14-2-5.05-3.14-8.22-2.94-2.5.2-4.8,1.1-6.7,2.8-21.2,19.1-59.4,46-77.9,46-5.4,0-9.5-.8-9.5-11.3,0-7.4,3.4-17.9,8.9-28.1,1.2,10.3,9.9,18,20.3,17.9,1,0,2-.1,3-.2h.1c16.8-2.6,38.1-19.9,52.4-35.2,9.3-10,30.8-35.4,29.8-57-.5-11.3-5.3-17.9-9.3-21.5-5.4-5-12.8-7.6-21.4-7.6l.1-.1c-12.3,0-28.7,6.6-48.5,19.6-13.9,9.2-27,19.6-39.2,31-11.9,11.4-22.4,24.2-31.1,38.1-10.6,17.3-16,33.8-16,49,0,14,4.8,26,13.8,34.6,8.7,8.3,20.5,12.7,34.1,12.7,12.1,0,26.5-4.1,41.6-11.7,17.57-8.88,35.53-22.26,53.31-39.63,1.94,5.61,5.11,10.27,7.19,13.03,3.5,4.5,10.6,12,19.1,12,5.2,0,10.8-2.8,21.1-10.7,2.1,9.5,9.6,15.8,19.7,15.8,4,0,11.1-1.2,25.9-11.8,3.3-2.3,6.7-4.9,10-7.6,4.2,7.1,10.2,12.3,18.1,12.3,6.9,0,14.3-4.4,22.4-11.1,3.1,9.2,10.4,15.3,19.7,15.3s20.3-5.3,32.9-16.1c.8,1.6,1.8,3.2,2.8,4.7,5.6,8,14.8,12.8,24.6,12.6,4.1,0,16.5,0,54.3-28.9,17.9-13.7,36.7-30.3,43.8-38.8,2.3-2.8,3.2-6.5,2.2-10ZM629.6,48.4l1.2-.7c-3.2,3.9-6.5,7.6-10.1,11.2-1-.2-1.9-.3-2.9-.3-.6,0-1.2,0-1.8.1,4.3-3.7,8.9-7.2,13.6-10.3Z" fill="#000" stroke-width="0"/><path d="M560.5,176.9c-23.3,0-38.9-15.4-38.9-38.3,0-35.4,33.9-70.7,44.3-80.6,16.1-15.7,57.3-48,81.4-48,13.2,0,21.1,7.5,21.7,20.6.6,12.6-9.6,31.4-27.3,50.4-16.7,17.9-35.3,30.6-47.2,32.4-.6.1-1.1.1-1.7.1-6.2.1-11.3-4.9-11.4-11.2h0v-.4c0-6.4,5.3-12.3,9.9-16.8l14.3-12.8c3.7-3.8,8.6-8.2,11.2-8.2,1.4-.1,2.7.5,3.5,1.6.2.4.4.7.6,1.1,17.5-16.2,27.1-31.7,27.1-36.5,0-2.2-1.1-2.2-1.6-2.2-.4,0-.7.1-1.1.2-.4.1-.8.2-1.2.3-22.3,4.4-48.5,30.9-66.6,52.4-13.5,16.1-22.9,37.4-22.9,51.7,0,13.4,6.2,20.3,18.5,20.3,22.2,0,62.3-28.9,83.9-48.3.4-.3.8-.5,1.3-.5,1.1,0,1.9.8,2,1.9.6,10.8-2.9,14.2-10,21l-.5.4c-46.6,45.8-80.1,49.4-89.3,49.4ZM723.2,156c-6.8,0-11.3-4.9-11.3-12.4,0-3.8,1.5-9.2,4.4-16.3l-12.2,10-.8.6c-8.3,6.8-16.7,13-21,13-6.9,0-18.6-14.1-19-25.2-.2-7,3.2-14.4,10.2-21.8,16.1-17,46.9-30.3,63.6-30.7h.4c10,0,14.2,8.2,14.2,11.5,0,2.2-2,4-4.4,5.2,2.2,2,3.4,4.8,3.2,7.8,0,3.5-3.5,8-7.6,13.3-4.3,5.5-9.2,11.7-9.2,16.1,0,2.5,2.8,2.7,4,2.7,5.6,0,13.4-5.8,20.3-11,1.2-.9,2.3-1.7,3.4-2.5,4.6-22.1,39.5-40,56.3-41h.5c3.6,0,5.6,1.9,7.4,4,1-1.8,2-4,3.3-6.5,11.1-22.3,22.9-44,34.6-44,5.1,0,8.2,4.9,8.2,9.5,0,6.6-5.4,15.4-8.7,20l-19.7,30.9c-.8,1.2-1.6,2.5-2.4,3.8-6.1,9.5-12.9,20.2-12.9,30.7,0,5.1.9,7.9,2.4,7.9,4.1,0,15.3-8.9,22.1-14.2,2.3-1.8,4.3-3.4,5.9-4.6,7-22,30.7-40.5,52.1-40.5h.3c13.8,0,15.9,7.2,15.9,11.4,0,8.3-6.1,24.3-46.7,38.1l-.3,3c-.2,1.9.4,3.7,1.7,5.1,1.7,1.8,4.6,2.7,8.3,2.7,8,0,32.7-16.8,73.4-50l3-2.4c.4-.3.8-.4,1.3-.4.2,0,.4,0,.6.1.6.2,1.1.7,1.3,1.4l1.8,6.5c.2.6,0,1.3-.4,1.8-11,13.1-70.5,64.5-91.3,64.5-14.4,0-21.7-12.2-22.9-25-11.3,11.6-26,23.9-37.4,23.9-8.4,0-12.3-8.4-12.3-16.2,0-3.2.3-6.5.7-9.7l-1,1c-11.5,10.9-22.4,20.7-29.6,20.7s-12.3-10.3-14.5-18.4c-10.2,10-30.1,25.6-39.2,25.6ZM681.5,130.3c.3,1.3.8,2.2,1.2,2.2h.2l.6-.1c3.3-.6,9.8-1.8,41.5-33.9-37.8,12.8-43.4,23.2-43.5,31.8h0ZM815.8,97.7c-29.2,10.1-32.7,16.1-33.7,27.7-.2.6.2,1.3.8,1.5h.2c3.6-1.4,25.7-18.2,32.7-29.2ZM905.8,87.8c-7.2,2-16.7,8.7-22.4,19.3,13.6-6.2,22.3-16.8,22.4-19,.1-.1,0-.2,0-.3Z" fill="url(#c)" stroke-width="0"/></svg>